<?xml version="1.0" standalone="no"?>
<!DOCTYPE svg PUBLIC "-//W3C//DTD SVG 20010904//EN"
 "http://www.w3.org/TR/2001/REC-SVG-20010904/DTD/svg10.dtd">
<svg version="1.0" xmlns="http://www.w3.org/2000/svg"
 width="916.000000pt" height="916.000000pt" viewBox="0 0 916.000000 916.000000"
 preserveAspectRatio="xMidYMid meet">
<metadata>
Created by potrace 1.11, written by Peter Selinger 2001-2013
</metadata>
<g transform="translate(0.000000,916.000000) scale(0.100000,-0.100000)"
fill="#000000" stroke="none">
<path d="M3060 9063 c-36 -8 -72 -16 -80 -17 -13 -4 -55 -25 -119 -61 -50 -29
-152 -124 -202 -190 -13 -16 -26 -32 -29 -35 -22 -19 -165 -255 -177 -292 -3
-10 -10 -18 -15 -18 -6 0 -8 -6 -5 -14 3 -8 3 -16 -1 -18 -10 -4 -44 -76 -88
-183 -20 -49 -43 -104 -50 -122 -8 -17 -14 -37 -14 -45 0 -8 -3 -18 -6 -21 -7
-7 -71 -187 -79 -221 -3 -11 -16 -54 -29 -95 -14 -42 -32 -103 -41 -136 -43
-158 -86 -322 -89 -340 -2 -11 -12 -49 -21 -85 -9 -36 -19 -76 -22 -90 -2 -14
-15 -72 -28 -130 -13 -58 -26 -118 -29 -135 -3 -16 -8 -41 -11 -55 -3 -14 -7
-36 -10 -50 -3 -14 -7 -36 -10 -50 -19 -86 -43 -210 -50 -260 -2 -14 -4 -25
-5 -25 -2 0 -9 -35 -15 -84 -3 -24 -7 -46 -9 -50 -4 -6 -17 -87 -21 -126 -1
-11 -4 -29 -8 -40 -3 -11 -8 -40 -11 -65 -3 -25 -8 -56 -11 -70 -2 -13 -7 -42
-10 -65 -3 -22 -10 -65 -15 -95 -5 -30 -12 -73 -15 -95 -3 -22 -10 -67 -15
-100 -13 -89 -19 -125 -25 -170 -3 -22 -7 -53 -10 -70 -3 -16 -7 -48 -10 -70
-7 -52 -17 -116 -20 -135 -2 -8 -6 -42 -9 -75 -4 -33 -11 -87 -16 -120 -5 -33
-12 -82 -16 -110 -3 -27 -10 -55 -14 -60 -5 -6 -5 -17 0 -25 5 -8 7 -17 4 -21
-2 -4 -8 -41 -13 -81 -20 -155 -24 -194 -25 -210 0 -10 -3 -18 -6 -18 -3 0 -5
-17 -6 -38 0 -34 -8 -109 -19 -189 -12 -81 -14 -101 -20 -153 -3 -30 -8 -66
-10 -80 -3 -14 -7 -50 -11 -80 -3 -30 -7 -66 -9 -80 -2 -14 -6 -47 -9 -75 -4
-27 -9 -66 -11 -85 -3 -19 -7 -55 -10 -80 -3 -25 -7 -58 -10 -75 -2 -16 -7
-55 -10 -85 -3 -30 -8 -66 -10 -80 -2 -14 -7 -50 -10 -80 -3 -30 -8 -62 -10
-70 -2 -8 -7 -40 -10 -70 -3 -30 -7 -66 -9 -80 -3 -14 -10 -61 -16 -105 -6
-44 -13 -91 -15 -105 -2 -14 -7 -47 -11 -75 -3 -27 -9 -59 -11 -70 -2 -11 -6
-33 -8 -50 -2 -16 -13 -77 -25 -135 -12 -58 -24 -118 -26 -133 -3 -16 -12 -46
-19 -68 -8 -21 -12 -39 -9 -39 8 0 36 71 41 105 3 17 9 38 14 48 5 9 7 17 5
17 -3 0 1 18 9 39 7 22 16 52 19 68 3 15 10 46 15 68 5 22 12 51 15 65 2 14 9
45 15 70 5 25 12 56 15 70 2 14 20 102 40 195 19 94 37 181 40 195 2 14 7 36
10 50 3 14 8 36 10 50 2 14 9 45 15 70 5 25 12 60 15 78 4 17 8 46 11 64 3 17
8 35 10 39 3 4 7 24 10 44 2 21 7 45 9 54 3 9 7 34 11 56 3 22 12 67 19 100 8
33 17 77 20 99 4 21 8 41 10 45 3 3 7 27 11 51 3 25 11 65 17 90 5 25 12 56
14 70 2 14 9 45 15 70 5 25 11 56 13 70 2 14 6 36 10 50 3 14 8 36 10 50 3 14
8 36 11 50 3 14 8 41 11 60 3 19 8 44 11 55 4 11 7 27 8 35 2 8 12 60 23 115
12 55 23 111 26 125 2 14 9 46 15 73 6 26 14 64 17 84 3 20 10 47 15 61 5 13
7 27 4 32 -3 5 -1 11 4 15 5 3 9 13 9 23 0 9 2 28 5 42 8 33 37 161 51 230 7
33 25 120 30 145 2 11 11 47 19 80 15 56 19 73 32 143 3 15 8 35 11 44 3 9 7
25 9 35 8 37 36 158 39 168 1 6 6 28 11 50 10 51 10 51 40 170 15 55 28 111
31 125 3 14 8 34 11 45 4 11 8 25 9 30 8 36 15 65 24 100 6 22 13 51 16 65 3
14 11 46 19 73 8 26 14 49 15 52 0 3 0 6 1 8 0 1 2 11 4 21 2 10 11 41 19 67
9 27 15 52 15 56 -1 4 1 15 5 23 3 8 17 56 31 105 35 125 36 129 39 142 1 7 5
16 9 19 4 4 7 15 7 25 0 17 9 46 87 294 36 114 99 299 110 325 3 8 7 20 8 25
13 54 173 424 226 519 15 28 38 69 50 91 52 95 182 255 208 255 6 0 11 5 11
10 0 6 7 10 15 10 8 0 15 4 15 8 0 13 65 33 112 33 144 3 372 -190 698 -591
25 -30 48 -59 52 -65 4 -5 19 -24 32 -41 35 -43 218 -287 236 -314 8 -12 20
-28 25 -34 6 -6 50 -67 99 -136 49 -69 94 -130 100 -135 6 -6 16 -18 21 -27
19 -31 69 -103 102 -144 18 -23 33 -46 33 -52 0 -6 4 -12 8 -14 7 -3 167 -224
212 -293 25 -38 83 -120 89 -125 13 -12 51 -70 51 -79 0 -5 4 -11 8 -13 4 -1
41 -50 82 -108 40 -58 90 -127 110 -155 20 -27 81 -111 134 -185 54 -74 106
-146 116 -160 10 -14 69 -95 131 -180 62 -85 120 -163 131 -174 10 -11 18 -23
18 -27 0 -4 6 -14 13 -21 6 -7 36 -44 64 -83 29 -38 56 -74 60 -80 90 -116 86
-108 65 -133 -9 -11 -33 -40 -52 -63 -19 -24 -43 -51 -52 -61 -10 -10 -18 -22
-18 -27 0 -5 -4 -11 -8 -13 -5 -1 -57 -61 -117 -133 -59 -71 -115 -137 -124
-146 -14 -13 -62 -68 -128 -145 -81 -95 -124 -144 -158 -180 -22 -24 -53 -58
-70 -76 -122 -135 -216 -238 -250 -274 -22 -23 -96 -103 -165 -176 -159 -169
-898 -908 -1056 -1054 -65 -61 -152 -142 -193 -180 -41 -38 -89 -82 -106 -99
-18 -16 -72 -66 -121 -110 -48 -44 -96 -88 -106 -98 -10 -9 -22 -17 -28 -17
-5 0 -10 -6 -10 -12 0 -7 -14 -22 -30 -34 -16 -11 -51 -41 -77 -65 -27 -25
-84 -76 -128 -114 -44 -38 -85 -74 -91 -80 -6 -5 -32 -28 -59 -50 -26 -22 -53
-44 -59 -50 -21 -18 -141 -121 -170 -146 -16 -13 -34 -29 -40 -34 -6 -6 -49
-42 -96 -80 -47 -39 -90 -74 -96 -80 -24 -22 -108 -91 -128 -105 -19 -13 -56
-44 -90 -75 -6 -6 -31 -26 -56 -45 -25 -19 -47 -37 -50 -40 -15 -15 -109 -90
-114 -90 -3 0 -14 -8 -24 -18 -21 -19 -38 -32 -97 -77 -22 -16 -49 -37 -60
-46 -21 -18 -122 -98 -172 -135 -15 -12 -116 -87 -223 -167 -107 -80 -200
-149 -205 -154 -46 -37 -126 -93 -134 -93 -5 0 -11 -4 -13 -8 -1 -5 -25 -23
-53 -42 -27 -18 -52 -37 -55 -40 -3 -4 -23 -19 -45 -33 -22 -14 -65 -44 -95
-67 -30 -22 -65 -45 -77 -52 -13 -6 -23 -15 -23 -20 0 -4 -5 -8 -10 -8 -6 0
-16 -5 -23 -10 -29 -25 -137 -100 -137 -95 0 3 -10 -3 -22 -15 -12 -11 -25
-20 -29 -20 -4 0 -14 -6 -21 -13 -7 -7 -31 -24 -53 -37 -22 -13 -53 -34 -68
-47 -15 -12 -43 -30 -62 -38 -18 -9 -41 -26 -52 -38 l-18 -21 25 17 c14 9 32
20 40 24 13 5 209 118 250 143 33 20 126 75 135 80 15 8 114 67 175 106 30 19
64 39 75 44 22 11 284 174 300 187 6 4 78 50 160 102 83 52 153 99 157 105 4
6 8 8 8 4 0 -4 38 19 85 52 47 33 88 60 90 60 3 0 33 19 68 43 34 24 141 97
237 162 96 66 200 137 231 160 31 22 67 47 79 55 13 8 41 29 64 45 23 17 64
46 91 65 28 19 55 39 61 45 6 5 21 17 34 25 67 46 185 135 188 142 2 4 10 8
17 8 7 0 15 3 17 8 2 4 28 25 58 47 30 22 62 47 71 55 9 8 48 38 85 65 38 28
71 53 74 56 3 3 32 25 65 50 33 24 65 51 72 59 7 8 13 12 13 8 0 -4 17 9 38
27 20 19 40 35 44 35 4 0 15 8 25 18 21 22 150 124 210 168 24 17 40 34 36 37
-3 4 -1 7 4 7 10 0 69 45 186 143 82 68 408 348 427 366 14 13 107 96 170 151
15 13 140 127 234 214 318 292 759 735 1059 1061 25 28 58 64 74 81 15 17 55
62 88 99 33 37 65 73 70 79 6 6 37 42 70 81 33 38 70 81 82 95 34 39 56 65 89
107 17 21 56 68 86 105 l55 67 25 -27 c14 -15 54 -63 89 -107 73 -91 73 -92
164 -200 73 -88 153 -181 172 -200 6 -7 30 -34 54 -61 192 -224 702 -736 807
-809 9 -7 37 -31 62 -54 25 -23 88 -74 140 -114 52 -39 101 -77 108 -84 7 -7
26 -20 42 -30 17 -9 30 -21 30 -25 0 -4 5 -8 11 -8 6 0 28 -13 48 -28 42 -33
200 -132 251 -157 19 -10 38 -22 41 -27 3 -5 9 -9 12 -9 4 0 57 -24 119 -53
104 -49 145 -68 158 -70 3 -1 11 -5 18 -9 6 -5 12 -6 12 -2 0 3 13 -1 28 -9
35 -18 239 -73 302 -81 25 -3 52 -8 61 -11 19 -5 234 -15 228 -10 -2 2 -44 13
-94 25 -49 12 -98 27 -108 32 -10 5 -22 7 -27 4 -5 -3 -11 -1 -15 5 -3 5 -13
10 -21 10 -15 0 -219 78 -271 104 -15 8 -46 23 -68 34 -198 98 -487 286 -650
424 -9 7 -21 18 -28 23 -217 177 -535 494 -777 776 -12 13 -31 35 -43 49 -13
14 -29 34 -37 46 -16 23 -97 119 -117 140 -7 7 -13 17 -13 22 0 6 -4 12 -8 14
-23 9 -502 650 -519 694 -2 7 47 81 110 166 62 84 126 172 142 196 15 23 32
42 36 42 5 0 9 9 9 21 0 11 5 17 10 14 6 -3 10 -2 10 3 0 5 51 86 113 179 61
93 119 180 126 194 8 13 45 74 81 134 36 61 69 117 73 125 4 8 17 31 29 50 22
37 226 435 229 448 2 12 19 55 34 87 13 28 62 157 69 180 1 6 11 37 21 70 18
58 20 66 29 103 3 9 5 17 6 17 2 0 8 23 15 60 3 17 10 55 17 85 15 74 14 242
-1 311 -18 83 -66 157 -130 200 -29 20 -58 36 -65 36 -6 0 -24 4 -41 8 -38 9
-138 10 -190 2 -77 -11 -202 -49 -250 -75 -16 -9 -32 -16 -35 -15 -14 2 -226
-101 -300 -145 -19 -12 -42 -25 -50 -29 -8 -4 -49 -29 -90 -55 -41 -27 -82
-53 -90 -58 -52 -33 -239 -165 -256 -181 -11 -10 -24 -19 -28 -19 -4 0 -18
-11 -32 -25 -14 -14 -28 -25 -32 -25 -4 0 -19 -10 -33 -23 -15 -12 -41 -33
-59 -47 -18 -14 -41 -32 -51 -40 -9 -8 -30 -24 -45 -35 -15 -11 -41 -32 -58
-47 -17 -15 -34 -28 -38 -28 -5 0 -8 -4 -8 -10 0 -15 12 -12 40 10 43 35 129
90 139 90 5 0 11 4 13 8 4 11 127 92 139 92 5 0 9 3 9 8 0 4 9 12 20 17 11 6
77 45 147 87 179 107 409 228 433 228 6 0 10 4 10 10 0 5 3 9 8 8 4 -1 24 6
46 15 21 9 41 17 43 17 3 0 19 6 36 14 157 70 372 95 442 51 37 -23 85 -76 85
-92 0 -22 1 -28 10 -38 9 -12 0 -210 -10 -210 -1 0 -3 -7 -5 -15 -2 -12 -21
-81 -30 -110 -1 -3 -7 -18 -14 -35 -6 -16 -17 -43 -23 -60 -46 -122 -208 -440
-232 -457 -6 -4 -7 -8 -2 -8 5 0 2 -8 -6 -17 -8 -10 -28 -40 -44 -68 -15 -27
-35 -62 -44 -76 -23 -40 -154 -243 -160 -249 -3 -3 -38 -54 -79 -115 -41 -60
-77 -112 -80 -115 -3 -3 -22 -27 -41 -55 -19 -27 -38 -51 -42 -53 -4 -2 -8 -8
-8 -13 0 -7 -159 -224 -208 -284 -4 -5 -19 -25 -32 -44 -32 -45 -58 -71 -69
-71 -8 0 -149 207 -160 234 -2 6 -12 19 -23 30 -10 11 -18 26 -18 33 0 7 -4
13 -10 13 -5 0 -10 7 -10 15 0 8 -4 15 -10 15 -5 0 -10 5 -10 10 0 6 -5 16
-11 23 -12 12 -253 384 -381 587 -40 63 -76 117 -80 118 -4 2 -8 8 -8 14 0 5
-13 29 -30 53 -16 24 -30 48 -30 53 0 6 -4 12 -8 14 -7 3 -72 95 -72 102 0 2
-31 50 -68 107 -38 57 -75 115 -82 129 -7 14 -16 27 -19 30 -4 3 -27 37 -51
75 -25 39 -48 72 -52 73 -5 2 -8 8 -8 12 0 8 -203 316 -227 345 -5 6 -33 46
-63 90 -30 44 -57 82 -61 85 -3 3 -20 26 -37 52 -18 25 -39 54 -48 62 -8 9
-13 16 -9 16 4 0 -1 7 -9 16 -9 8 -42 50 -73 92 -32 42 -63 84 -70 92 -65 84
-265 313 -342 389 -98 99 -282 261 -295 261 -2 0 -28 16 -57 36 -70 47 -212
115 -274 130 -16 4 -37 9 -45 11 -40 12 -241 9 -300 -4z"/>
<path d="M5589 7153 c-13 -16 -12 -17 4 -4 9 7 17 15 17 17 0 8 -8 3 -21 -13z"/>
</g>
</svg>
