<?xml version="1.0" encoding="UTF-8" standalone="no"?>
<!-- Created with Inkscape (http://www.inkscape.org/) -->

<svg
   xmlns:dc="http://purl.org/dc/elements/1.1/"
   xmlns:cc="http://creativecommons.org/ns#"
   xmlns:rdf="http://www.w3.org/1999/02/22-rdf-syntax-ns#"
   xmlns:svg="http://www.w3.org/2000/svg"
   xmlns="http://www.w3.org/2000/svg"
   xmlns:sodipodi="http://sodipodi.sourceforge.net/DTD/sodipodi-0.dtd"
   xmlns:inkscape="http://www.inkscape.org/namespaces/inkscape"
   version="1.1"
   id="svg2"
   xml:space="preserve"
   width="839.70667"
   height="157.94667"
   viewBox="0 0 839.70667 157.94667"
   sodipodi:docname="ma23-logo.en.svg"
   inkscape:version="0.92.5 (2060ec1f9f, 2020-04-08)"><metadata
     id="metadata8"><rdf:RDF><cc:Work
         rdf:about=""><dc:format>image/svg+xml</dc:format><dc:type
           rdf:resource="http://purl.org/dc/dcmitype/StillImage" /><dc:title></dc:title></cc:Work></rdf:RDF></metadata><defs
     id="defs6" /><sodipodi:namedview
     pagecolor="#ffffff"
     bordercolor="#666666"
     borderopacity="1"
     objecttolerance="10"
     gridtolerance="10"
     guidetolerance="10"
     inkscape:pageopacity="0"
     inkscape:pageshadow="2"
     inkscape:window-width="640"
     inkscape:window-height="480"
     id="namedview4"
     showgrid="false"
     inkscape:zoom="0.43348471"
     inkscape:cx="419.85333"
     inkscape:cy="78.973335"
     inkscape:window-x="850"
     inkscape:window-y="139"
     inkscape:window-maximized="0"
     inkscape:current-layer="g10" /><g
     id="g10"
     inkscape:groupmode="layer"
     inkscape:label="ink_ext_XXXXXX"
     transform="matrix(1.3333333,0,0,-1.3333333,0,157.94667)"><g
       id="g12"
       transform="scale(0.1)"><path
         d="m 3633.29,47.5898 h -15.28 V 1173.13 h 15.28 V 47.5898"
         style="fill:#eb232c;fill-opacity:1;fill-rule:nonzero;stroke:none"
         id="path14"
         inkscape:connector-curvature="0" /><g
         id="g16"
         transform="scale(10)"><text
           transform="matrix(1,0,0,-1,392.083,36.677)"
           style="font-variant:normal;font-weight:normal;font-size:24.88080025px;font-family:WienerMelange;-inkscape-font-specification:WienerMelange-Regular;writing-mode:lr-tb;fill:#343a3a;fill-opacity:1;fill-rule:nonzero;stroke:none"
           id="text20"><tspan
             x="0 14.530387 26.174902 41.00386 55.856331 70.685287 92.555511 98.477142 110.61897 116.19227 133.78207 143.06233 151.59651 164.98238 170.90401 180.53288 191.80388"
             y="0"
             sodipodi:role="line"
             id="tspan18">Economic Affairs,</tspan></text>
<text
           transform="matrix(1,0,0,-1,392.0787,6.4911)"
           style="font-variant:normal;font-weight:normal;font-size:24.87260056px;font-family:WienerMelange;-inkscape-font-specification:WienerMelange-Regular;writing-mode:lr-tb;fill:#343a3a;fill-opacity:1;fill-rule:nonzero;stroke:none"
           id="text24"><tspan
             x="0 13.753913 27.135372 42.556385 57.131577 71.458191 81.083893 86.65535 100.03627 114.88522 130.30623 135.87769 149.88159 159.35718 172.73811 181.96584 187.88551 199.15213 208.37985 214.29953 226.43619"
             y="0"
             sodipodi:role="line"
             id="tspan22">Labour and Statistics</tspan></text>
</g><path
         d="M 411.004,790.078 V 1173.01 H 0 C 0,1039.87 10.1094,910.688 28.6523,790.078 H 411.004"
         style="fill:#eb232c;fill-opacity:1;fill-rule:nonzero;stroke:none"
         id="path26"
         inkscape:connector-curvature="0" /><path
         d="M 411.004,669.473 H 50.6172 C 119.68,342.371 253.098,98.8086 411.004,47.9492 V 669.473"
         style="fill:#eb232c;fill-opacity:1;fill-rule:nonzero;stroke:none"
         id="path28"
         inkscape:connector-curvature="0" /><path
         d="m 531.617,790.078 v 382.932 h 411.008 c 0,-133.14 -10.113,-262.322 -28.652,-382.932 H 531.617"
         style="fill:#eb232c;fill-opacity:1;fill-rule:nonzero;stroke:none"
         id="path30"
         inkscape:connector-curvature="0" /><path
         d="M 531.617,669.473 H 892.008 C 822.945,342.371 689.527,98.8086 531.617,47.9492 V 669.473"
         style="fill:#eb232c;fill-opacity:1;fill-rule:nonzero;stroke:none"
         id="path32"
         inkscape:connector-curvature="0" /><path
         d="m 1495.47,674.199 c -47.63,0 -89.74,10.711 -126.32,32.149 -36.58,21.429 -65.05,51.3 -85.4,89.617 -20.35,38.316 -30.51,82.805 -30.51,133.457 0,38.527 6.16,73.478 18.5,104.878 12.34,31.39 29.65,58.22 51.96,80.53 22.29,22.29 48.48,39.51 78.57,51.63 30.09,12.11 62.68,18.18 97.75,18.18 28.13,0 54,-3.68 77.6,-11.04 23.59,-7.37 44.05,-16.88 61.38,-28.57 l -13.65,-83.13 h -3.89 c -13.86,10.82 -30.1,19.49 -48.7,25.98 -18.63,6.5 -39.41,9.74 -62.35,9.74 -30.74,0 -58.12,-6.6 -82.15,-19.81 -24.04,-13.21 -42.98,-32.26 -56.83,-57.15 -13.86,-24.898 -20.78,-55.305 -20.78,-91.238 0,-34.645 6.6,-64.617 19.8,-89.945 13.21,-25.329 31.93,-44.707 56.18,-58.122 24.24,-13.425 52.6,-20.136 85.08,-20.136 22.93,0 45.14,3.254 66.56,9.742 21.43,6.492 39.71,14.5 54.88,24.027 h 3.89 l -14.28,-89.617 c -36.8,-20.781 -79.24,-31.172 -127.29,-31.172"
         style="fill:#343a3a;fill-opacity:1;fill-rule:nonzero;stroke:none"
         id="path34"
         inkscape:connector-curvature="0" /><path
         d="m 1713.52,685.887 v 326.663 h 90.9 V 685.887 Z m 45.45,379.263 c -17.33,0 -31.4,5.3 -42.22,15.91 -10.82,10.6 -16.23,23.92 -16.23,39.94 0,16.45 5.41,29.87 16.23,40.26 10.82,10.39 24.89,15.59 42.22,15.59 17.74,0 31.92,-5.2 42.54,-15.59 10.6,-10.39 15.91,-23.81 15.91,-40.26 0,-16.02 -5.31,-29.34 -15.91,-39.94 -10.62,-10.61 -24.8,-15.91 -42.54,-15.91"
         style="fill:#343a3a;fill-opacity:1;fill-rule:nonzero;stroke:none"
         id="path36"
         inkscape:connector-curvature="0" /><path
         d="m 2066.63,685.887 h -100.01 c -15.58,21.648 -27.39,46.437 -35.39,74.359 -8.02,27.926 -12.01,59.637 -12.01,95.145 v 81.175 h -57.15 v 75.984 h 57.15 v 96.76 h 89.62 v -96.76 h 76.63 l -13,-75.984 h -63.63 v -74.035 c 0,-36.804 5.08,-68.84 15.25,-96.117 10.18,-27.269 24.36,-52.601 42.54,-75.976 v -4.551"
         style="fill:#343a3a;fill-opacity:1;fill-rule:nonzero;stroke:none"
         id="path38"
         inkscape:connector-curvature="0" /><path
         d="m 2158.05,523.535 v 4.539 l 85.71,157.813 c -17.75,28.578 -34.74,60.824 -50.97,96.761 -16.24,35.934 -30.64,73.711 -43.19,113.329 -12.56,39.613 -22.51,78.468 -29.87,116.573 h 93.51 c 6.07,-37.245 15.81,-77.187 29.22,-119.823 13.42,-42.649 29.24,-84.102 47.41,-124.364 h 4.56 c 18.6,41.129 34.73,81.715 48.37,121.766 13.65,40.039 23.72,80.855 30.21,122.421 h 81.98 c -10.4,-56.292 -18.24,-110.73 -38.8,-163.331 -20.56,-52.606 -45.78,-107.051 -75.65,-163.332 l -86.38,-162.352 h -96.11"
         style="fill:#343a3a;fill-opacity:1;fill-rule:nonzero;stroke:none"
         id="path40"
         inkscape:connector-curvature="0" /><path
         d="m 2808.1,757.328 c 24.25,0 44.05,8.113 59.41,24.352 15.37,16.234 23.06,38.851 23.06,67.859 0,29.004 -7.69,51.734 -23.06,68.195 -15.36,16.45 -35.16,24.676 -59.41,24.676 -23.82,0 -43.5,-8.226 -59.09,-24.676 -15.59,-16.461 -23.39,-39.191 -23.39,-68.195 0,-29.008 7.8,-51.625 23.39,-67.859 15.59,-16.239 35.27,-24.352 59.09,-24.352 z m 0,-79.234 c -33.34,0 -63.22,6.933 -89.61,20.781 -26.42,13.852 -47.2,33.66 -62.35,59.426 -15.16,25.75 -22.74,56.176 -22.74,91.238 0,35.07 7.58,65.481 22.74,91.246 15.15,25.758 35.93,45.672 62.35,59.745 26.39,14.07 56.27,21.1 89.61,21.1 33.33,0 63.21,-7.03 89.62,-21.1 26.39,-14.073 47.18,-33.987 62.34,-59.745 15.15,-25.765 22.73,-56.176 22.73,-91.246 0,-35.062 -7.58,-65.488 -22.73,-91.238 -15.16,-25.766 -35.95,-45.574 -62.34,-59.426 -26.41,-13.848 -56.29,-20.781 -89.62,-20.781"
         style="fill:#343a3a;fill-opacity:1;fill-rule:nonzero;stroke:none"
         id="path42"
         inkscape:connector-curvature="0" /><path
         d="m 3081.35,685.887 v 250.679 h -62.34 v 75.984 h 62.34 v 29.22 c 0,45.02 11.79,79.23 35.4,102.61 23.59,23.38 53.57,35.07 89.93,35.07 14.3,0 26.95,-1.3 38,-3.9 11.04,-2.6 13.03,-5.63 21.26,-9.09 l -12.33,-74.03 h -3.9 c -10.4,5.62 -14.24,8.44 -26.79,8.44 -15.57,0 -27.92,-5.2 -37.01,-15.59 -9.1,-10.39 -13.63,-25.98 -13.63,-46.76 v -25.97 h 83.77 l -13,-75.984 h -70.77 V 685.887 h -90.93"
         style="fill:#343a3a;fill-opacity:1;fill-rule:nonzero;stroke:none"
         id="path44"
         inkscape:connector-curvature="0" /><path
         d="m 1513,65.25 h -104.56 c -16.46,32.0313 -32.79,67.641 -49.03,106.832 -16.23,39.176 -31.61,80.203 -46.11,123.063 -14.5,42.863 -27.71,86.152 -39.61,129.882 -11.92,43.719 -21.75,86.153 -29.55,127.286 h 99.36 c 12.55,-68.836 28.91,-136.817 49.04,-203.926 20.13,-67.11 42.75,-131.184 67.86,-192.215 h 3.9 c 25.1,61.031 47.73,125.105 67.86,192.215 20.14,67.109 36.25,135.09 48.38,203.926 h 96.78 c -7.81,-41.133 -17.66,-83.567 -29.56,-127.286 -11.91,-43.73 -25.12,-87.019 -39.61,-129.882 -14.52,-42.86 -29.88,-83.887 -46.11,-123.063 C 1545.8,132.891 1529.45,97.2813 1513,65.25"
         style="fill:#343a3a;fill-opacity:1;fill-rule:nonzero;stroke:none"
         id="path46"
         inkscape:connector-curvature="0" /><path
         d="m 1726.81,65.25 v 326.652 h 90.93 V 65.25 Z m 45.45,379.262 c -17.31,0 -31.37,5.293 -42.19,15.906 -10.84,10.605 -16.24,23.918 -16.24,39.941 0,16.446 5.4,29.875 16.24,40.262 10.82,10.395 24.88,15.59 42.19,15.59 17.76,0 31.94,-5.195 42.55,-15.59 10.61,-10.387 15.9,-23.816 15.9,-40.262 0,-16.023 -5.29,-29.336 -15.9,-39.941 -10.61,-10.613 -24.79,-15.906 -42.55,-15.906"
         style="fill:#343a3a;fill-opacity:1;fill-rule:nonzero;stroke:none"
         id="path48"
         inkscape:connector-curvature="0" /><path
         d="m 2034.94,326.961 c -20.35,0 -37.14,-6.172 -50.33,-18.508 -13.22,-12.332 -21.34,-30.848 -24.35,-55.515 l 138.97,15.585 c -3.04,20.332 -10.18,35.157 -21.44,44.485 -11.26,9.297 -25.54,13.953 -42.85,13.953 z m 5.2,-269.5001 c -35.52,0 -66.14,6.918 -91.9,20.7774 -25.77,13.8515 -45.57,33.5507 -59.42,59.0897 -13.86,25.551 -20.78,55.414 -20.78,89.625 0,35.938 7.23,66.777 21.76,92.539 14.5,25.762 34.51,45.567 60.06,59.422 25.54,13.859 54.56,20.789 87.03,20.789 48.05,0 85.49,-14.734 112.34,-44.168 26.85,-29.441 40.26,-70.125 40.26,-122.09 V 213.32 L 1964.8,187.988 c 6.05,-19.918 16.88,-33.988 32.47,-42.207 15.58,-8.23 34.63,-12.34 57.15,-12.34 21.2,0 42.42,2.809 63.64,8.438 21.2,5.621 37.23,11.902 48.06,18.832 h 4.54 l -12.98,-77.9297 c -12.13,-6.4922 -29.01,-12.3399 -50.67,-17.5313 -21.65,-5.1914 -43.94,-7.7891 -66.87,-7.7891"
         style="fill:#343a3a;fill-opacity:1;fill-rule:nonzero;stroke:none"
         id="path50"
         inkscape:connector-curvature="0" /><path
         d="m 2244.86,65.25 v 326.652 h 82.47 v -55.195 h 3.89 c 8.22,19.043 21.76,34.309 40.59,45.781 18.84,11.465 40.8,17.215 65.92,17.215 38.09,0 68.07,-12.672 89.95,-37.996 21.84,-25.332 32.78,-60.508 32.78,-105.527 V 65.25 h -90.92 v 179.242 c 0,51.074 -20.99,76.629 -62.99,76.629 -21.22,0 -38.32,-7.578 -51.3,-22.734 -12.98,-15.157 -19.49,-35.293 -19.49,-60.391 V 65.25 h -90.9"
         style="fill:#343a3a;fill-opacity:1;fill-rule:nonzero;stroke:none"
         id="path52"
         inkscape:connector-curvature="0" /><path
         d="m 2635.29,65.25 v 326.652 h 82.48 v -55.195 h 3.89 c 8.22,19.043 21.76,34.309 40.6,45.781 18.83,11.465 40.81,17.215 65.93,17.215 38.07,0 68.06,-12.672 89.93,-37.996 21.86,-25.332 32.8,-60.508 32.8,-105.527 V 65.25 h -90.93 v 179.242 c 0,51.074 -21,76.629 -62.99,76.629 -21.21,0 -38.32,-7.578 -51.31,-22.734 -12.98,-15.157 -19.48,-35.293 -19.48,-60.391 V 65.25 h -90.92"
         style="fill:#343a3a;fill-opacity:1;fill-rule:nonzero;stroke:none"
         id="path54"
         inkscape:connector-curvature="0" /><path
         d="m 3094.57,162.66 c 0,-9.531 3.14,-17.531 9.42,-24.031 6.27,-6.488 16.56,-9.738 30.85,-9.738 22.52,0 41.24,6.597 56.18,19.808 14.93,13.199 22.39,30.621 22.39,52.278 v 7.793 l -68.83,-7.793 c -17.32,-1.731 -29.98,-5.52 -38,-11.368 -8,-5.839 -12.01,-14.839 -12.01,-26.949 z m 11.05,-102.6014 c -31.6,0 -56.72,8.4297 -75.34,25.3203 -18.62,16.8831 -27.92,40.4801 -27.92,70.7931 0,30.73 10.82,54.969 32.47,72.734 21.65,17.742 50.86,28.348 87.68,31.817 l 90.9,9.101 v 0.645 c 0,17.742 -4.86,31.172 -14.6,40.261 -9.75,9.094 -27.6,13.633 -53.57,13.633 -19.5,0 -39.29,-2.273 -59.43,-6.816 -20.12,-4.539 -36.27,-9.852 -48.39,-15.906 h -3.89 l 12.99,77.273 c 13.85,5.625 30.95,10.496 51.3,14.621 20.35,4.11 41.77,6.168 64.29,6.168 48.94,0 84.85,-11.48 107.81,-34.43 22.94,-22.949 34.42,-56.281 34.42,-100.011 V 161.371 c 0,-16.891 1.19,-33.57 3.58,-50.012 2.37,-16.4606 6.37,-30.3082 12.01,-41.5699 V 65.25 h -85.07 c -2.61,6.4883 -4.99,14.6094 -7.15,24.3516 -2.18,9.7382 -3.48,18.7184 -3.89,26.9494 h -3.9 c -8.24,-16.012 -22.52,-29.4494 -42.87,-40.2619 -20.36,-10.8203 -44.16,-16.2305 -71.43,-16.2305"
         style="fill:#343a3a;fill-opacity:1;fill-rule:nonzero;stroke:none"
         id="path56"
         inkscape:connector-curvature="0" /></g></g></svg>