<?xml version="1.0" encoding="UTF-8" standalone="no"?>
<!-- Created with Inkscape (http://www.inkscape.org/) -->

<svg
   xmlns:dc="http://purl.org/dc/elements/1.1/"
   xmlns:cc="http://creativecommons.org/ns#"
   xmlns:rdf="http://www.w3.org/1999/02/22-rdf-syntax-ns#"
   xmlns:svg="http://www.w3.org/2000/svg"
   xmlns="http://www.w3.org/2000/svg"
   xmlns:sodipodi="http://sodipodi.sourceforge.net/DTD/sodipodi-0.dtd"
   xmlns:inkscape="http://www.inkscape.org/namespaces/inkscape"
   version="1.1"
   id="svg2"
   xml:space="preserve"
   width="484.43866"
   height="151.60669"
   viewBox="0 0 484.43866 151.60669"
   sodipodi:docname="ma23-logo.compact.svg"
   inkscape:version="0.92.5 (2060ec1f9f, 2020-04-08)"><metadata
     id="metadata8"><rdf:RDF><cc:Work
         rdf:about=""><dc:format>image/svg+xml</dc:format><dc:type
           rdf:resource="http://purl.org/dc/dcmitype/StillImage" /><dc:title /></cc:Work></rdf:RDF></metadata><defs
     id="defs6" /><sodipodi:namedview
     pagecolor="#ffffff"
     bordercolor="#666666"
     borderopacity="1"
     objecttolerance="10"
     gridtolerance="10"
     guidetolerance="10"
     inkscape:pageopacity="0"
     inkscape:pageshadow="2"
     inkscape:window-width="640"
     inkscape:window-height="480"
     id="namedview4"
     showgrid="false"
     inkscape:zoom="0.43348471"
     inkscape:cx="419.85333"
     inkscape:cy="72.628028"
     inkscape:window-x="850"
     inkscape:window-y="139"
     inkscape:window-maximized="0"
     inkscape:current-layer="g10"
     fit-margin-top="0"
     fit-margin-left="0"
     fit-margin-right="0"
     fit-margin-bottom="0" /><g
     id="g10"
     inkscape:groupmode="layer"
     inkscape:label="ink_ext_XXXXXX"
     transform="matrix(1.3333333,0,0,-1.3333333,0,157.952)"><path
       inkscape:connector-curvature="0"
       id="path26"
       style="fill:#eb232c;fill-opacity:1;fill-rule:nonzero;stroke:none;stroke-width:0.1"
       d="M 41.1004,79.0078 V 117.301 H 0 C 0,103.987 1.01094,91.0688 2.86523,79.0078 H 41.1004" /><path
       inkscape:connector-curvature="0"
       id="path28"
       style="fill:#eb232c;fill-opacity:1;fill-rule:nonzero;stroke:none;stroke-width:0.1"
       d="M 41.1004,66.9473 H 5.06172 C 11.968,34.2371 25.3098,9.88086 41.1004,4.79492 V 66.9473" /><path
       inkscape:connector-curvature="0"
       id="path30"
       style="fill:#eb232c;fill-opacity:1;fill-rule:nonzero;stroke:none;stroke-width:0.1"
       d="m 53.1617,79.0078 v 38.2932 h 41.1008 c 0,-13.314 -1.0113,-26.2322 -2.8652,-38.2932 H 53.1617" /><path
       inkscape:connector-curvature="0"
       id="path32"
       style="fill:#eb232c;fill-opacity:1;fill-rule:nonzero;stroke:none;stroke-width:0.1"
       d="M 53.1617,66.9473 H 89.2008 C 82.2945,34.2371 68.9527,9.88086 53.1617,4.79492 V 66.9473" /><path
       inkscape:connector-curvature="0"
       id="path34"
       style="fill:#343a3a;fill-opacity:1;fill-rule:nonzero;stroke:none;stroke-width:0.1"
       d="m 149.547,67.4199 c -4.763,0 -8.974,1.0711 -12.632,3.2149 -3.658,2.1429 -6.505,5.13 -8.54,8.9617 -2.035,3.8316 -3.051,8.2805 -3.051,13.3457 0,3.8527 0.616,7.3478 1.85,10.4878 1.234,3.139 2.965,5.822 5.196,8.053 2.229,2.229 4.848,3.951 7.857,5.163 3.009,1.211 6.268,1.818 9.775,1.818 2.813,0 5.4,-0.368 7.76,-1.104 2.359,-0.737 4.405,-1.688 6.138,-2.857 l -1.365,-8.313 h -0.389 c -1.386,1.082 -3.01,1.949 -4.87,2.598 -1.863,0.65 -3.941,0.974 -6.235,0.974 -3.074,0 -5.812,-0.66 -8.215,-1.981 -2.404,-1.321 -4.298,-3.226 -5.683,-5.715 -1.386,-2.4898 -2.078,-5.5305 -2.078,-9.1238 0,-3.4645 0.66,-6.4617 1.98,-8.9945 1.321,-2.5329 3.193,-4.4707 5.618,-5.8122 2.424,-1.3425 5.26,-2.0136 8.508,-2.0136 2.293,0 4.514,0.3254 6.656,0.9742 2.143,0.6492 3.971,1.45 5.488,2.4027 h 0.389 l -1.428,-8.9617 c -3.68,-2.0781 -7.924,-3.1172 -12.729,-3.1172" /><path
       inkscape:connector-curvature="0"
       id="path36"
       style="fill:#343a3a;fill-opacity:1;fill-rule:nonzero;stroke:none;stroke-width:0.1"
       d="m 171.352,68.5887 v 32.6663 h 9.09 V 68.5887 Z m 4.545,37.9263 c -1.733,0 -3.14,0.53 -4.222,1.591 -1.082,1.06 -1.623,2.392 -1.623,3.994 0,1.645 0.541,2.987 1.623,4.026 1.082,1.039 2.489,1.559 4.222,1.559 1.774,0 3.192,-0.52 4.254,-1.559 1.06,-1.039 1.591,-2.381 1.591,-4.026 0,-1.602 -0.531,-2.934 -1.591,-3.994 -1.062,-1.061 -2.48,-1.591 -4.254,-1.591" /><path
       inkscape:connector-curvature="0"
       id="path38"
       style="fill:#343a3a;fill-opacity:1;fill-rule:nonzero;stroke:none;stroke-width:0.1"
       d="m 206.663,68.5887 h -10.001 c -1.558,2.1648 -2.739,4.6437 -3.539,7.4359 -0.802,2.7926 -1.201,5.9637 -1.201,9.5145 v 8.1175 h -5.715 v 7.5984 h 5.715 v 9.676 h 8.962 v -9.676 h 7.663 l -1.3,-7.5984 h -6.363 v -7.4035 c 0,-3.6804 0.508,-6.884 1.525,-9.6117 1.018,-2.7269 2.436,-5.2601 4.254,-7.5976 v -0.4551" /><path
       inkscape:connector-curvature="0"
       id="path40"
       style="fill:#343a3a;fill-opacity:1;fill-rule:nonzero;stroke:none;stroke-width:0.1"
       d="m 215.805,52.3535 v 0.4539 l 8.571,15.7813 c -1.775,2.8578 -3.474,6.0824 -5.097,9.6761 -1.624,3.5934 -3.064,7.3711 -4.319,11.3329 -1.256,3.9613 -2.251,7.8468 -2.987,11.6573 h 9.351 c 0.607,-3.7245 1.581,-7.7187 2.922,-11.9823 1.342,-4.2649 2.924,-8.4102 4.741,-12.4364 h 0.456 c 1.86,4.1129 3.473,8.1715 4.837,12.1766 1.365,4.0039 2.372,8.0855 3.021,12.2421 h 8.198 c -1.04,-5.6292 -1.824,-11.073 -3.88,-16.3331 -2.056,-5.2606 -4.578,-10.7051 -7.565,-16.3332 l -8.638,-16.2352 h -9.611" /><path
       inkscape:connector-curvature="0"
       id="path42"
       style="fill:#343a3a;fill-opacity:1;fill-rule:nonzero;stroke:none;stroke-width:0.1"
       d="m 280.81,75.7328 c 2.425,0 4.405,0.8113 5.941,2.4352 1.537,1.6234 2.306,3.8851 2.306,6.7859 0,2.9004 -0.769,5.1734 -2.306,6.8195 -1.536,1.645 -3.516,2.4676 -5.941,2.4676 -2.382,0 -4.35,-0.8226 -5.909,-2.4676 -1.559,-1.6461 -2.339,-3.9191 -2.339,-6.8195 0,-2.9008 0.78,-5.1625 2.339,-6.7859 1.559,-1.6239 3.527,-2.4352 5.909,-2.4352 z m 0,-7.9234 c -3.334,0 -6.322,0.6933 -8.961,2.0781 -2.642,1.3852 -4.72,3.366 -6.235,5.9426 -1.516,2.575 -2.274,5.6176 -2.274,9.1238 0,3.507 0.758,6.5481 2.274,9.1246 1.515,2.5758 3.593,4.5672 6.235,5.9745 2.639,1.407 5.627,2.11 8.961,2.11 3.333,0 6.321,-0.703 8.962,-2.11 2.639,-1.4073 4.718,-3.3987 6.234,-5.9745 1.515,-2.5765 2.273,-5.6176 2.273,-9.1246 0,-3.5062 -0.758,-6.5488 -2.273,-9.1238 -1.516,-2.5766 -3.595,-4.5574 -6.234,-5.9426 -2.641,-1.3848 -5.629,-2.0781 -8.962,-2.0781" /><path
       inkscape:connector-curvature="0"
       id="path44"
       style="fill:#343a3a;fill-opacity:1;fill-rule:nonzero;stroke:none;stroke-width:0.1"
       d="m 308.135,68.5887 v 25.0679 h -6.234 v 7.5984 h 6.234 v 2.922 c 0,4.502 1.179,7.923 3.54,10.261 2.359,2.338 5.357,3.507 8.993,3.507 1.43,0 2.695,-0.13 3.8,-0.39 1.104,-0.26 1.303,-0.563 2.126,-0.909 l -1.233,-7.403 h -0.39 c -1.04,0.562 -1.424,0.844 -2.679,0.844 -1.557,0 -2.792,-0.52 -3.701,-1.559 -0.91,-1.039 -1.363,-2.598 -1.363,-4.676 v -2.597 h 8.377 l -1.3,-7.5984 h -7.077 V 68.5887 h -9.093" /><path
       inkscape:connector-curvature="0"
       id="path46"
       style="fill:#343a3a;fill-opacity:1;fill-rule:nonzero;stroke:none;stroke-width:0.1"
       d="m 151.3,6.525 h -10.456 c -1.646,3.20313 -3.279,6.7641 -4.903,10.6832 -1.623,3.9176 -3.161,8.0203 -4.611,12.3063 -1.45,4.2863 -2.771,8.6152 -3.961,12.9882 -1.192,4.3719 -2.175,8.6153 -2.955,12.7286 h 9.936 c 1.255,-6.8836 2.891,-13.6817 4.904,-20.3926 2.013,-6.711 4.275,-13.1184 6.786,-19.2215 h 0.39 c 2.51,6.1031 4.773,12.5105 6.786,19.2215 2.014,6.7109 3.625,13.509 4.838,20.3926 h 9.678 c -0.781,-4.1133 -1.766,-8.3567 -2.956,-12.7286 -1.191,-4.373 -2.512,-8.7019 -3.961,-12.9882 -1.452,-4.286 -2.988,-8.3887 -4.611,-12.3063 C 154.58,13.2891 152.945,9.72813 151.3,6.525" /><path
       inkscape:connector-curvature="0"
       id="path48"
       style="fill:#343a3a;fill-opacity:1;fill-rule:nonzero;stroke:none;stroke-width:0.1"
       d="m 172.681,6.525 v 32.6652 h 9.093 V 6.525 Z m 4.545,37.9262 c -1.731,0 -3.137,0.5293 -4.219,1.5906 -1.084,1.0605 -1.624,2.3918 -1.624,3.9941 0,1.6446 0.54,2.9875 1.624,4.0262 1.082,1.0395 2.488,1.559 4.219,1.559 1.776,0 3.194,-0.5195 4.255,-1.559 1.061,-1.0387 1.59,-2.3816 1.59,-4.0262 0,-1.6023 -0.529,-2.9336 -1.59,-3.9941 -1.061,-1.0613 -2.479,-1.5906 -4.255,-1.5906" /><path
       inkscape:connector-curvature="0"
       id="path50"
       style="fill:#343a3a;fill-opacity:1;fill-rule:nonzero;stroke:none;stroke-width:0.1"
       d="m 203.494,32.6961 c -2.035,0 -3.714,-0.6172 -5.033,-1.8508 -1.322,-1.2332 -2.134,-3.0848 -2.435,-5.5515 l 13.897,1.5585 c -0.304,2.0332 -1.018,3.5157 -2.144,4.4485 -1.126,0.9297 -2.554,1.3953 -4.285,1.3953 z m 0.52,-26.95001 c -3.552,0 -6.614,0.6918 -9.19,2.07774 -2.577,1.38515 -4.557,3.35507 -5.942,5.90897 -1.386,2.5551 -2.078,5.5414 -2.078,8.9625 0,3.5938 0.723,6.6777 2.176,9.2539 1.45,2.5762 3.451,4.5567 6.006,5.9422 2.554,1.3859 5.456,2.0789 8.703,2.0789 4.805,0 8.549,-1.4734 11.234,-4.4168 2.685,-2.9441 4.026,-7.0125 4.026,-12.209 V 21.332 L 196.48,18.7988 c 0.605,-1.9918 1.688,-3.3988 3.247,-4.2207 1.558,-0.823 3.463,-1.234 5.715,-1.234 2.12,0 4.242,0.2809 6.364,0.8438 2.12,0.5621 3.723,1.1902 4.806,1.8832 h 0.454 L 215.768,8.27813 C 214.555,7.62891 212.867,7.04414 210.701,6.525 208.536,6.00586 206.307,5.74609 204.014,5.74609" /><path
       inkscape:connector-curvature="0"
       id="path52"
       style="fill:#343a3a;fill-opacity:1;fill-rule:nonzero;stroke:none;stroke-width:0.1"
       d="m 224.486,6.525 v 32.6652 h 8.247 v -5.5195 h 0.389 c 0.822,1.9043 2.176,3.4309 4.059,4.5781 1.884,1.1465 4.08,1.7215 6.592,1.7215 3.809,0 6.807,-1.2672 8.995,-3.7996 2.184,-2.5332 3.278,-6.0508 3.278,-10.5527 V 6.525 h -9.092 v 17.9242 c 0,5.1074 -2.099,7.6629 -6.299,7.6629 -2.122,0 -3.832,-0.7578 -5.13,-2.2734 -1.298,-1.5157 -1.949,-3.5293 -1.949,-6.0391 V 6.525 h -9.09" /><path
       inkscape:connector-curvature="0"
       id="path54"
       style="fill:#343a3a;fill-opacity:1;fill-rule:nonzero;stroke:none;stroke-width:0.1"
       d="m 263.529,6.525 v 32.6652 h 8.248 v -5.5195 h 0.389 c 0.822,1.9043 2.176,3.4309 4.06,4.5781 1.883,1.1465 4.081,1.7215 6.593,1.7215 3.807,0 6.806,-1.2672 8.993,-3.7996 2.186,-2.5332 3.28,-6.0508 3.28,-10.5527 V 6.525 h -9.093 v 17.9242 c 0,5.1074 -2.1,7.6629 -6.299,7.6629 -2.121,0 -3.832,-0.7578 -5.131,-2.2734 -1.298,-1.5157 -1.948,-3.5293 -1.948,-6.0391 V 6.525 h -9.092" /><path
       inkscape:connector-curvature="0"
       id="path56"
       style="fill:#343a3a;fill-opacity:1;fill-rule:nonzero;stroke:none;stroke-width:0.1"
       d="m 309.457,16.266 c 0,-0.9531 0.314,-1.7531 0.942,-2.4031 0.627,-0.6488 1.656,-0.9738 3.085,-0.9738 2.252,0 4.124,0.6597 5.618,1.9808 1.493,1.3199 2.239,3.0621 2.239,5.2278 v 0.7793 l -6.883,-0.7793 c -1.732,-0.1731 -2.998,-0.552 -3.8,-1.1368 -0.8,-0.5839 -1.201,-1.4839 -1.201,-2.6949 z m 1.105,-10.26014 c -3.16,0 -5.672,0.84297 -7.534,2.53203 -1.862,1.68831 -2.792,4.04801 -2.792,7.07931 0,3.073 1.082,5.4969 3.247,7.2734 2.165,1.7742 5.086,2.8348 8.768,3.1817 l 9.09,0.9101 v 0.0645 c 0,1.7742 -0.486,3.1172 -1.46,4.0261 -0.975,0.9094 -2.76,1.3633 -5.357,1.3633 -1.95,0 -3.929,-0.2273 -5.943,-0.6816 -2.012,-0.4539 -3.627,-0.9852 -4.839,-1.5906 h -0.389 l 1.299,7.7273 c 1.385,0.5625 3.095,1.0496 5.13,1.4621 2.035,0.411 4.177,0.6168 6.429,0.6168 4.894,0 8.485,-1.148 10.781,-3.443 2.294,-2.2949 3.442,-5.6281 3.442,-10.0011 V 16.1371 c 0,-1.6891 0.119,-3.357 0.358,-5.0012 0.237,-1.64606 0.637,-3.03082 1.201,-4.15699 V 6.525 h -8.507 c -0.261,0.64883 -0.499,1.46094 -0.715,2.43516 -0.218,0.97382 -0.348,1.87184 -0.389,2.69494 h -0.39 c -0.824,-1.6012 -2.252,-2.94494 -4.287,-4.02619 -2.036,-1.08203 -4.416,-1.62305 -7.143,-1.62305" /></g></svg>