<?xml version="1.0" encoding="UTF-8" standalone="no"?>
<!-- Generator: Adobe Illustrator 19.0.0, SVG Export Plug-In . SVG Version: 6.00 Build 0)  -->

<svg
   xmlns:dc="http://purl.org/dc/elements/1.1/"
   xmlns:cc="http://creativecommons.org/ns#"
   xmlns:rdf="http://www.w3.org/1999/02/22-rdf-syntax-ns#"
   xmlns:svg="http://www.w3.org/2000/svg"
   xmlns="http://www.w3.org/2000/svg"
   xmlns:sodipodi="http://sodipodi.sourceforge.net/DTD/sodipodi-0.dtd"
   xmlns:inkscape="http://www.inkscape.org/namespaces/inkscape"
   version="1.1"
   id="Capa_1"
   x="0px"
   y="0px"
   viewBox="0 0 512.12 512.12"
   style="enable-background:new 0 0 512.12 512.12;"
   xml:space="preserve"
   sodipodi:docname="android.svg"
   inkscape:version="0.92.4 (5da689c313, 2019-01-14)"><metadata
   id="metadata53"><rdf:RDF><cc:Work
       rdf:about=""><dc:format>image/svg+xml</dc:format><dc:type
         rdf:resource="http://purl.org/dc/dcmitype/StillImage" /></cc:Work></rdf:RDF></metadata><defs
   id="defs51" /><sodipodi:namedview
   pagecolor="#ffffff"
   bordercolor="#666666"
   borderopacity="1"
   objecttolerance="10"
   gridtolerance="10"
   guidetolerance="10"
   inkscape:pageopacity="0"
   inkscape:pageshadow="2"
   inkscape:window-width="2560"
   inkscape:window-height="1403"
   id="namedview49"
   showgrid="false"
   inkscape:zoom="0.4608295"
   inkscape:cx="256.06"
   inkscape:cy="256.06"
   inkscape:window-x="2560"
   inkscape:window-y="0"
   inkscape:window-maximized="1"
   inkscape:current-layer="Capa_1" />
<g
   id="g10"
   transform="matrix(0.62534936,0,0,0.62534936,95.933045,95.933046)">
	<path
   style="fill:#4caf50"
   d="m 74.727,170.787 c -17.673,0 -32,14.327 -32,32 V 352.12 c 0,17.673 14.327,32 32,32 17.673,0 32,-14.327 32,-32 V 202.787 c 0,-17.673 -14.327,-32 -32,-32 z"
   id="path2"
   inkscape:connector-curvature="0" />
	<path
   style="fill:#4caf50"
   d="m 437.393,170.787 c -17.673,0 -32,14.327 -32,32 V 352.12 c 0,17.673 14.327,32 32,32 17.673,0 32,-14.327 32,-32 V 202.787 c 0,-17.673 -14.326,-32 -32,-32 z"
   id="path4"
   inkscape:connector-curvature="0" />
	<path
   style="fill:#4caf50"
   d="M 373.393,170.787 H 138.727 c -5.891,0 -10.667,4.776 -10.667,10.667 V 352.12 c -0.005,25.348 17.831,47.197 42.667,52.267 v 75.733 c 0,17.673 14.327,32 32,32 17.673,0 32,-14.327 32,-32 v -74.667 h 42.667 v 74.667 c 0,17.673 14.327,32 32,32 17.673,0 32,-14.327 32,-32 v -75.733 c 24.836,-5.07 42.672,-26.919 42.667,-52.267 V 181.454 c -10e-4,-5.891 -4.777,-10.667 -10.668,-10.667 z"
   id="path6"
   inkscape:connector-curvature="0" />
	<path
   style="fill:#4caf50"
   d="m 333.607,44.323 26.005,-25.984 c 4.237,-4.093 4.354,-10.845 0.262,-15.083 -4.093,-4.237 -10.845,-4.354 -15.083,-0.262 -0.089,0.086 -0.176,0.173 -0.262,0.262 L 314.236,33.55 c -37.102,-16.117 -79.229,-16.117 -116.331,0 L 167.612,3.235 c -4.237,-4.093 -10.99,-3.975 -15.083,0.262 -3.992,4.134 -3.992,10.687 0,14.82 l 25.984,26.005 c -31.677,20.96 -50.649,56.481 -50.453,94.464 0,5.891 4.776,10.667 10.667,10.667 h 234.667 c 5.891,0 10.667,-4.776 10.667,-10.667 0.195,-37.982 -18.777,-73.503 -50.454,-94.463 z"
   id="path8"
   inkscape:connector-curvature="0" />
</g>
<g
   id="g16"
   transform="matrix(0.62534936,0,0,0.62534936,95.933045,95.933046)">
	<circle
   style="fill:#fafafa"
   cx="202.72701"
   cy="96.120003"
   r="10.667"
   id="circle12" />
	<circle
   style="fill:#fafafa"
   cx="309.39301"
   cy="96.120003"
   r="10.667"
   id="circle14" />
</g>
<g
   id="g18">
</g>
<g
   id="g20">
</g>
<g
   id="g22">
</g>
<g
   id="g24">
</g>
<g
   id="g26">
</g>
<g
   id="g28">
</g>
<g
   id="g30">
</g>
<g
   id="g32">
</g>
<g
   id="g34">
</g>
<g
   id="g36">
</g>
<g
   id="g38">
</g>
<g
   id="g40">
</g>
<g
   id="g42">
</g>
<g
   id="g44">
</g>
<g
   id="g46">
</g>
</svg>