<?xml version="1.0" encoding="UTF-8" standalone="no"?>
<!-- Created with Inkscape (http://www.inkscape.org/) -->

<svg
   xmlns:dc="http://purl.org/dc/elements/1.1/"
   xmlns:cc="http://creativecommons.org/ns#"
   xmlns:rdf="http://www.w3.org/1999/02/22-rdf-syntax-ns#"
   xmlns:svg="http://www.w3.org/2000/svg"
   xmlns="http://www.w3.org/2000/svg"
   xmlns:sodipodi="http://sodipodi.sourceforge.net/DTD/sodipodi-0.dtd"
   xmlns:inkscape="http://www.inkscape.org/namespaces/inkscape"
   width="1069.27"
   height="1069.27"
   id="svg4375"
   version="1.1"
   inkscape:version="0.92.4 (5da689c313, 2019-01-14)"
   sodipodi:docname="knx.svg">
  <defs
     id="defs4377">
    <clipPath
       clipPathUnits="userSpaceOnUse"
       id="clipPath140">
      <path
         inkscape:connector-curvature="0"
         d="m 230.43,28.437 h 47.158 V 49.001 H 230.43 Z"
         id="path142" />
    </clipPath>
  </defs>
  <sodipodi:namedview
     id="base"
     pagecolor="#ffffff"
     bordercolor="#666666"
     borderopacity="1.0"
     inkscape:pageopacity="0.0"
     inkscape:pageshadow="2"
     inkscape:zoom="0.73163555"
     inkscape:cx="375.98383"
     inkscape:cy="345.86607"
     inkscape:document-units="px"
     inkscape:current-layer="layer1"
     showgrid="false"
     fit-margin-top="0"
     fit-margin-left="0"
     fit-margin-right="0"
     fit-margin-bottom="0"
     inkscape:window-width="2560"
     inkscape:window-height="1403"
     inkscape:window-x="2560"
     inkscape:window-y="0"
     inkscape:window-maximized="1" />
  <metadata
     id="metadata4380">
    <rdf:RDF>
      <cc:Work
         rdf:about="">
        <dc:format>image/svg+xml</dc:format>
        <dc:type
           rdf:resource="http://purl.org/dc/dcmitype/StillImage" />
        <dc:title></dc:title>
      </cc:Work>
    </rdf:RDF>
  </metadata>
  <g
     inkscape:label="Ebene 1"
     inkscape:groupmode="layer"
     id="layer1"
     transform="translate(-247.66352,692.62284)">
    <g
       id="g116"
       transform="matrix(18.193929,0,0,-18.193929,781.034,-323.40333)">
      <path
         inkscape:connector-curvature="0"
         d="m 0,0 c 0,0 5.395,0.051 10.31,-1.518 4.916,-1.568 8.089,-4.394 8.089,-4.394 l 3.31,-0.001 c 0,0 -3.479,3.835 -10.17,6.188 C 4.848,2.627 0,2.338 0,2.338 V 0"
         style="fill:#006bb6;fill-opacity:1;fill-rule:nonzero;stroke:none"
         id="path118" />
    </g>
    <g
       id="g120"
       transform="matrix(18.193929,0,0,-18.193929,576.69799,-330.42619)">
      <path
         inkscape:connector-curvature="0"
         d="m 0,0 c -6.287,-1.979 -10.479,-6.3 -10.479,-6.3 l 3.312,10e-4 c 0,0 2.743,2.677 8.044,4.357 5.3,1.68 10.345,1.555 10.345,1.555 V 1.951 C 11.222,1.951 6.324,2.203 0,0"
         style="fill:#0cb14b;fill-opacity:1;fill-rule:nonzero;stroke:none"
         id="path122" />
    </g>
    <g
       id="g128"
       transform="matrix(18.193929,0,0,-18.193929,731.63748,-203.92308)">
      <path
         inkscape:connector-curvature="0"
         d="m 0,0 5.138,-7.246 -0.027,7.223 3.29,0.008 0.002,-11.544 -3.801,10e-4 -5.306,7.168 -0.057,-7.168 H -4.01 V 0.001"
         style="fill:#8e979d;fill-opacity:1;fill-rule:nonzero;stroke:none"
         id="path130" />
    </g>
    <g
       id="g132"
       transform="matrix(18.193929,0,0,-18.193929,1178.7351,8.10897)">
      <path
         inkscape:connector-curvature="0"
         d="M 0,0 -3.978,0.02 -7.471,4.185 -11.548,0 h -3.32 l 5.876,5.996 -4.674,5.57 3.877,-0.003 2.924,-3.408 3.389,3.408 h 3.32 l -5.189,-5.22"
         style="fill:#006bb6;fill-opacity:1;fill-rule:nonzero;stroke:none"
         id="path134" />
    </g>
    <g
       transform="matrix(18.193929,0,0,-18.193929,-3806.5651,525.48902)"
       id="g136">
      <g
         id="g138"
         clip-path="url(#clipPath140)">
        <g
           id="g144"
           transform="translate(237.668,34.645)">
          <path
             inkscape:connector-curvature="0"
             d="M 0,0 -0.471,0.593 4.234,5.366 H 0.872 L -3.919,0.495 V 5.354 H -7.23 l -0.008,-11.561 3.319,-0.001 v 3.302 l 1.312,1.33 3.881,-4.619 3.971,0.001"
             style="fill:#0cb14b;fill-opacity:1;fill-rule:nonzero;stroke:none"
             id="path146" />
        </g>
      </g>
    </g>
  </g>
</svg>
