<?xml version="1.0" encoding="utf-8"?>
<!-- Generator: Adobe Illustrator 22.1.0, SVG Export Plug-In . SVG Version: 6.00 Build 0)  -->
<svg version="1.1" id="Layer_1" xmlns="http://www.w3.org/2000/svg" xmlns:xlink="http://www.w3.org/1999/xlink" x="0px" y="0px"
	 viewBox="0 0 423 281" enable-background="new 0 0 423 281" xml:space="preserve">
<g>
	<path id="XMLID_5653_" fill="#2F6571" d="M408,76.3V3.5H44.8l-11.4,8.4v262.1l11.4,6.9H408v-10.5l15-16.7V92.9L408,76.3z
		 M126.4,275.3c-4.6,0-8.3-3.7-8.3-8.3s3.7-8.3,8.3-8.3s8.3,3.7,8.3,8.3S131,275.3,126.4,275.3z M135.9,27.4c-4.6,0-8.3-3.7-8.3-8.3
		c0-4.6,3.7-8.3,8.3-8.3s8.3,3.7,8.3,8.3C144.2,23.7,140.5,27.4,135.9,27.4z M412.1,90.6c4.6,0,8.3,3.7,8.3,8.3
		c0,4.6-3.7,8.3-8.3,8.3c-4.6,0-8.3-3.7-8.3-8.3C403.7,94.3,407.5,90.6,412.1,90.6z M412.7,256.2c-4.6,0-8.3-3.7-8.3-8.3
		c0-4.6,3.7-8.3,8.3-8.3c4.6,0,8.3,3.7,8.3,8.3C421,252.5,417.3,256.2,412.7,256.2z"/>
	<path id="XMLID_5652_" fill="#242422" d="M279.3,0l9.5,9.5v14.3H153.2l-9.5-9.5V0C143.6,0,279.3,0,279.3,0z"/>
	<path id="XMLID_5651_" fill="#242422" d="M394.8,0l9.5,9.5v14.3H296l-9.5-9.5V0C286.5,0,394.8,0,394.8,0z"/>
	<rect id="XMLID_5650_" x="143.6" fill="#4A4A49" width="135.7" height="14.3"/>
	<rect id="XMLID_5649_" x="286.5" fill="#4A4A49" width="108.3" height="14.3"/>
	<path id="XMLID_5648_" fill="#242422" d="M390.8,253.8l9.5,9.5v14.3h-82.1l-9.5-9.5v-14.3C308.7,253.8,390.8,253.9,390.8,253.8z"/>
	<rect id="XMLID_5647_" x="308.7" y="253.8" fill="#4A4A49" width="82.1" height="14.3"/>
	
		<rect id="XMLID_5646_" x="377.7" y="256.2" transform="matrix(-1 -1.224647e-16 1.224647e-16 -1 764.9693 521.9108)" fill="#241E1C" width="9.5" height="9.5"/>
	<polygon id="XMLID_5645_" fill="#242422" points="378.6,256.2 387.2,265.6 387.2,256.2 	"/>
	
		<rect id="XMLID_5644_" x="364.6" y="256.2" transform="matrix(-1 -1.224647e-16 1.224647e-16 -1 738.7818 521.9108)" fill="#241E1C" width="9.5" height="9.5"/>
	<polygon id="XMLID_5643_" fill="#242422" points="365.4,256.2 374.2,265.6 374.2,256.2 	"/>
	
		<rect id="XMLID_5642_" x="351.5" y="256.2" transform="matrix(-1 -1.224647e-16 1.224647e-16 -1 712.5941 521.9108)" fill="#241E1C" width="9.5" height="9.5"/>
	<polygon id="XMLID_5641_" fill="#242422" points="352.1,256.2 361.1,265.6 361.1,256.2 	"/>
	
		<rect id="XMLID_5640_" x="338.4" y="256.2" transform="matrix(-1 -1.224647e-16 1.224647e-16 -1 686.4064 521.9108)" fill="#241E1C" width="9.5" height="9.5"/>
	<polygon id="XMLID_5639_" fill="#242422" points="338.8,256.2 348,265.6 348,256.2 	"/>
	
		<rect id="XMLID_5638_" x="325.3" y="256.2" transform="matrix(-1 -1.224647e-16 1.224647e-16 -1 660.219 521.9108)" fill="#241E1C" width="9.5" height="9.5"/>
	<polygon id="XMLID_5637_" fill="#242422" points="325.6,256.2 334.9,265.6 334.9,256.2 	"/>
	
		<rect id="XMLID_5636_" x="312.3" y="256.2" transform="matrix(-1 -1.224647e-16 1.224647e-16 -1 634.0313 521.9108)" fill="#241E1C" width="9.5" height="9.5"/>
	<path id="XMLID_5635_" fill="#242422" d="M294.6,253.8l9.5,9.5v14.3H195.8l-9.5-9.5v-14.3C186.3,253.8,294.5,253.9,294.6,253.8z"/>
	<rect id="XMLID_5634_" x="186.3" y="253.8" fill="#4A4A49" width="108.3" height="14.3"/>
	<g id="XMLID_5631_">
		
			<rect id="XMLID_5633_" x="189.8" y="256.2" transform="matrix(-1 -1.224647e-16 1.224647e-16 -1 389.204 521.9108)" fill="#241E1C" width="9.5" height="9.5"/>
		<polygon id="XMLID_5632_" fill="#242422" points="189.8,256.2 199.4,265.7 199.4,256.2 		"/>
	</g>
	<g id="XMLID_5628_">
		
			<rect id="XMLID_5630_" x="202.9" y="256.2" transform="matrix(-1 -1.224647e-16 1.224647e-16 -1 415.3918 521.9108)" fill="#241E1C" width="9.5" height="9.5"/>
		<polygon id="XMLID_5629_" fill="#242422" points="202.9,256.2 212.5,265.7 212.5,256.2 		"/>
	</g>
	<g id="XMLID_5625_">
		
			<rect id="XMLID_5627_" x="216" y="256.2" transform="matrix(-1 -1.224647e-16 1.224647e-16 -1 441.5795 521.9108)" fill="#241E1C" width="9.5" height="9.5"/>
		<polygon id="XMLID_5626_" fill="#242422" points="216,256.2 225.6,265.7 225.6,256.2 		"/>
	</g>
	<g id="XMLID_5622_">
		
			<rect id="XMLID_5624_" x="229.1" y="256.2" transform="matrix(-1 -1.224647e-16 1.224647e-16 -1 467.7668 521.9108)" fill="#241E1C" width="9.5" height="9.5"/>
		<polygon id="XMLID_5623_" fill="#242422" points="229.1,256.2 238.6,265.7 238.6,256.2 		"/>
	</g>
	<g id="XMLID_5619_">
		
			<rect id="XMLID_5621_" x="242.2" y="256.2" transform="matrix(-1 -1.224647e-16 1.224647e-16 -1 493.9543 521.9108)" fill="#241E1C" width="9.5" height="9.5"/>
		<polygon id="XMLID_5620_" fill="#242422" points="242.2,256.2 251.7,265.7 251.7,256.2 		"/>
	</g>
	<g id="XMLID_5616_">
		
			<rect id="XMLID_5618_" x="255.3" y="256.2" transform="matrix(-1 -1.224647e-16 1.224647e-16 -1 520.142 521.9108)" fill="#241E1C" width="9.5" height="9.5"/>
		<polygon id="XMLID_5617_" fill="#242422" points="255.3,256.2 264.8,265.7 264.8,256.2 		"/>
	</g>
	<g id="XMLID_5613_">
		
			<rect id="XMLID_5615_" x="268.4" y="256.2" transform="matrix(-1 -1.224647e-16 1.224647e-16 -1 546.3296 521.9108)" fill="#241E1C" width="9.5" height="9.5"/>
		<polygon id="XMLID_5614_" fill="#242422" points="268.4,256.2 277.9,265.7 277.9,256.2 		"/>
	</g>
	<g id="XMLID_5610_">
		
			<rect id="XMLID_5612_" x="281.5" y="256.2" transform="matrix(-1 -1.224647e-16 1.224647e-16 -1 572.5173 521.9108)" fill="#241E1C" width="9.5" height="9.5"/>
		<polygon id="XMLID_5611_" fill="#242422" points="281.5,256.2 291,265.7 291,256.2 		"/>
	</g>
	<path id="XMLID_5609_" fill="#D4D2D1" d="M38,58.2c0,4.9,4,9,8.9,9s8.9-4,8.9-9c0-4.9-4-9-8.9-9S38,53.3,38,58.2z"/>
	<ellipse id="XMLID_5608_" fill="#BCBCBC" cx="45.9" cy="117.2" rx="8.9" ry="9"/>
	<g id="XMLID_5605_">
		
			<rect id="XMLID_5607_" x="202.9" y="256.2" transform="matrix(-1 -1.224647e-16 1.224647e-16 -1 415.3918 521.9108)" fill="#241E1C" width="9.5" height="9.5"/>
		<polygon id="XMLID_189_" fill="none" points="202.9,256.2 212.5,265.7 212.5,256.2 		"/>
	</g>
	<polygon id="XMLID_5604_" fill="#D4D2D1" points="4.2,120.2 81.5,120.2 81.5,60.6 78.3,56.7 0,56.7 0,117.3 	"/>
	<rect id="XMLID_5603_" y="56.7" fill="#EBEAE5" width="78.5" height="60.6"/>
	<rect id="XMLID_5602_" x="208.9" y="48.8" fill="#FFFFFF" width="198.8" height="2.1"/>
	<rect id="XMLID_5601_" x="192.5" y="25.8" fill="#FFFFFF" width="9.5" height="21.4"/>
	<rect id="XMLID_5600_" x="209.1" y="41.9" fill="#FFFFFF" width="85.7" height="8.3"/>
	<text id="XMLID_5599_" transform="matrix(0.999 0 0 1 212.6865 49.085)"><tspan x="0" y="0" fill="#2F6571" font-family="'DejaVuSansMono-Bold'" font-size="7.1494px" letter-spacing="1">Digital </tspan><tspan x="44.7" y="0" fill="#2F6571" font-family="'DejaVuSansMono'" font-size="7.1494px" letter-spacing="1">- PWM~</tspan></text>
	<rect id="XMLID_180_" x="219.3" y="225.4" fill="none" width="82.9" height="2.1"/>
	<rect id="XMLID_5597_" x="268.8" y="225.9" fill="#FFFFFF" width="33.3" height="8.3"/>
	
		<text id="XMLID_5596_" transform="matrix(0.999 0 0 1 272.3584 232.0537)" fill="#2F6571" font-family="'DejaVuSansMono-Bold'" font-size="7.1494px" letter-spacing="1">POWER</text>
	<rect id="XMLID_5595_" x="313.1" y="224.4" fill="#FFFFFF" width="84.9" height="2.1"/>
	<rect id="XMLID_5594_" x="217.3" y="224.4" fill="#FFFFFF" width="84.9" height="2.1"/>
	<rect id="XMLID_5593_" x="313.1" y="225.2" fill="#FFFFFF" width="55.8" height="9.1"/>
	
		<text id="XMLID_5592_" transform="matrix(0.999 0 0 1 316.5889 232.0537)" fill="#2F6571" font-family="'DejaVuSansMono-Bold'" font-size="7.1494px" letter-spacing="1">analog IN</text>
	
		<text id="XMLID_5591_" transform="matrix(0 -1.001 1 0 200.1553 41.3193)" fill="#2F6571" font-family="'DejaVuSansMono'" font-size="7.142px">GND</text>
	
		<text id="XMLID_5590_" transform="matrix(0 -1.001 1 0 215.0674 35.9893)" fill="#FFFFFF" font-family="'DejaVuSansMono'" font-size="7.142px">13</text>
	
		<text id="XMLID_5589_" transform="matrix(0 -1.001 1 0 229.3525 35.9893)" fill="#FFFFFF" font-family="'DejaVuSansMono'" font-size="7.142px">12</text>
	
		<text id="XMLID_5588_" transform="matrix(0 -1.001 1 0 243.6338 40.6509)" fill="#FFFFFF" font-family="'DejaVuSansMono'" font-size="7.142px">~11</text>
	
		<text id="XMLID_5587_" transform="matrix(0 -1.001 1 0 257.917 40.6509)" fill="#FFFFFF" font-family="'DejaVuSansMono'" font-size="7.142px">~10</text>
	
		<text id="XMLID_5586_" transform="matrix(0 -1.001 1 0 187.6943 45.3125)" fill="#FFFFFF" font-family="'DejaVuSansMono'" font-size="7.142px">AREF</text>
	
		<text id="XMLID_5585_" transform="matrix(0 -1.001 1 0 214.6533 251.8652)" fill="#FFFFFF" font-family="'DejaVuSansMono'" font-size="7.142px">ioref</text>
	
		<text id="XMLID_5584_" transform="matrix(0 -1.001 1 0 227.6318 251.8652)" fill="#FFFFFF" font-family="'DejaVuSansMono'" font-size="7.142px">reset</text>
	
		<text id="XMLID_5583_" transform="matrix(0 -1.001 1 0 242.6064 252.2012)" fill="#FFFFFF" font-family="'DejaVuSansMono'" font-size="7.142px">3.3v</text>
	
		<text id="XMLID_5582_" transform="matrix(0 -1.001 1 0 254.5889 251.873)" fill="#FFFFFF" font-family="'DejaVuSansMono'" font-size="7.142px">5v</text>
	
		<text id="XMLID_5581_" transform="matrix(0 -1.001 1 0 280.5479 251.5371)" fill="#FFFFFF" font-family="'DejaVuSansMono'" font-size="7.142px">gnd</text>
	
		<text id="XMLID_5580_" transform="matrix(0 -1.001 1 0 267.5674 251.5371)" fill="#FFFFFF" font-family="'DejaVuSansMono'" font-size="7.142px">gnd</text>
	
		<text id="XMLID_5579_" transform="matrix(0 -1.001 1 0 293.5283 251.5371)" fill="#FFFFFF" font-family="'DejaVuSansMono'" font-size="7.142px">Vin</text>
	
		<text id="XMLID_5578_" transform="matrix(0 -1.001 1 0 324.4775 251.873)" fill="#FFFFFF" font-family="'DejaVuSansMono'" font-size="7.142px">a0</text>
	
		<text id="XMLID_5577_" transform="matrix(0 -1.001 1 0 337.458 251.873)" fill="#FFFFFF" font-family="'DejaVuSansMono'" font-size="7.142px">a1</text>
	
		<text id="XMLID_5576_" transform="matrix(0 -1.001 1 0 350.4365 251.873)" fill="#FFFFFF" font-family="'DejaVuSansMono'" font-size="7.142px">a2</text>
	
		<text id="XMLID_5575_" transform="matrix(0 -1.001 1 0 376.3955 251.873)" fill="#FFFFFF" font-family="'DejaVuSansMono'" font-size="7.142px">a4</text>
	
		<text id="XMLID_5574_" transform="matrix(0 -1.001 1 0 363.417 251.873)" fill="#FFFFFF" font-family="'DejaVuSansMono'" font-size="7.142px">a3</text>
	
		<text id="XMLID_5573_" transform="matrix(0 -1.001 1 0 389.3721 251.873)" fill="#FFFFFF" font-family="'DejaVuSansMono'" font-size="7.142px">a5</text>
	
		<text id="XMLID_5572_" transform="matrix(0.999 0 0 1 181.6152 62.73)" fill="#FFFFFF" font-family="'DejaVuSansMono'" font-size="7.1494px">L</text>
	
		<text id="XMLID_5571_" transform="matrix(0.999 0 0 1 153.9912 86.7178)" fill="#FFFFFF" font-family="'DejaVuSansMono'" font-size="7.1494px">TX</text>
	
		<text id="XMLID_5570_" transform="matrix(0.999 0 0 1 392.8916 65.3398)" fill="#FFFFFF" font-family="'DejaVuSansMono'" font-size="7.1494px">ON</text>
	
		<text id="XMLID_5569_" transform="matrix(0.999 0 0 1 153.9912 99.7095)" fill="#FFFFFF" font-family="'DejaVuSansMono'" font-size="7.1494px">RX</text>
	
		<text id="XMLID_5568_" transform="matrix(0 -1.001 1 0 272.208 35.9893)" fill="#FFFFFF" font-family="'DejaVuSansMono'" font-size="7.142px">~9</text>
	
		<text id="XMLID_5567_" transform="matrix(0 -1.001 1 0 286.4873 31.3271)" fill="#FFFFFF" font-family="'DejaVuSansMono'" font-size="7.142px">8</text>
	
		<text id="XMLID_5566_" transform="matrix(0 -1.001 1 0 303.1572 31.3271)" fill="#FFFFFF" font-family="'DejaVuSansMono'" font-size="7.142px">7</text>
	
		<text id="XMLID_5565_" transform="matrix(0 -1.001 1 0 317.4404 35.9893)" fill="#FFFFFF" font-family="'DejaVuSansMono'" font-size="7.142px">~6</text>
	
		<text id="XMLID_5564_" transform="matrix(0 -1.001 1 0 331.7275 35.9893)" fill="#FFFFFF" font-family="'DejaVuSansMono'" font-size="7.142px">~5</text>
	
		<text id="XMLID_5563_" transform="matrix(0 -1.001 1 0 346.0107 31.3271)" fill="#FFFFFF" font-family="'DejaVuSansMono'" font-size="7.142px">4</text>
	
		<text id="XMLID_5562_" transform="matrix(0 -1.001 1 0 360.2939 35.9893)" fill="#FFFFFF" font-family="'DejaVuSansMono'" font-size="7.142px">~3</text>
	
		<text id="XMLID_5561_" transform="matrix(0 -1.001 1 0 374.5811 31.3271)" fill="#FFFFFF" font-family="'DejaVuSansMono'" font-size="7.142px">2</text>
	
		<text id="XMLID_5560_" transform="matrix(0 -1.001 1 0 388.8564 45.3125)" fill="#FFFFFF" font-family="'DejaVuSansMono'" font-size="7.142px">TX→1</text>
	
		<text id="XMLID_5559_" transform="matrix(0 -1.001 1 0 403.1455 45.3125)" fill="#FFFFFF" font-family="'DejaVuSansMono'" font-size="7.142px">RX←0</text>
	<g id="XMLID_5556_">
		
			<rect id="XMLID_5558_" x="312.3" y="256.2" transform="matrix(-1 -1.224647e-16 1.224647e-16 -1 634.0313 521.9108)" fill="#241E1C" width="9.5" height="9.5"/>
		<polygon id="XMLID_5557_" fill="#242422" points="312.3,256.2 321.8,265.7 321.8,256.2 		"/>
	</g>
	<g id="XMLID_5553_">
		
			<rect id="XMLID_5555_" x="325.3" y="256.2" transform="matrix(-1 -1.224647e-16 1.224647e-16 -1 660.219 521.9108)" fill="#241E1C" width="9.5" height="9.5"/>
		<polygon id="XMLID_5554_" fill="#242422" points="325.3,256.2 334.9,265.7 334.9,256.2 		"/>
	</g>
	<g id="XMLID_5550_">
		
			<rect id="XMLID_5552_" x="338.4" y="256.2" transform="matrix(-1 -1.224647e-16 1.224647e-16 -1 686.4064 521.9108)" fill="#241E1C" width="9.5" height="9.5"/>
		<polygon id="XMLID_5551_" fill="#242422" points="338.4,256.2 348,265.7 348,256.2 		"/>
	</g>
	<g id="XMLID_5547_">
		
			<rect id="XMLID_5549_" x="351.5" y="256.2" transform="matrix(-1 -1.224647e-16 1.224647e-16 -1 712.5941 521.9108)" fill="#241E1C" width="9.5" height="9.5"/>
		<polygon id="XMLID_5548_" fill="#242422" points="351.5,256.2 361.1,265.7 361.1,256.2 		"/>
	</g>
	<g id="XMLID_5544_">
		
			<rect id="XMLID_5546_" x="364.6" y="256.2" transform="matrix(-1 -1.224647e-16 1.224647e-16 -1 738.7818 521.9108)" fill="#241E1C" width="9.5" height="9.5"/>
		<polygon id="XMLID_5545_" fill="#242422" points="364.6,256.2 374.2,265.7 374.2,256.2 		"/>
	</g>
	<g id="XMLID_5541_">
		
			<rect id="XMLID_5543_" x="377.7" y="256.2" transform="matrix(-1 -1.224647e-16 1.224647e-16 -1 764.9693 521.9108)" fill="#241E1C" width="9.5" height="9.5"/>
		<polygon id="XMLID_5542_" fill="#242422" points="377.7,256.2 387.2,265.7 387.2,256.2 		"/>
	</g>
	<g id="XMLID_5538_">
		
			<rect id="XMLID_5540_" x="147.2" y="2.4" transform="matrix(-1 -1.224647e-16 1.224647e-16 -1 303.9605 14.299)" fill="#241E1C" width="9.5" height="9.5"/>
		<polygon id="XMLID_5539_" fill="#242422" points="147.2,2.4 156.7,11.9 156.7,2.4 		"/>
	</g>
	<g id="XMLID_5535_">
		
			<rect id="XMLID_5537_" x="160.3" y="2.4" transform="matrix(-1 -1.224647e-16 1.224647e-16 -1 330.1483 14.299)" fill="#241E1C" width="9.5" height="9.5"/>
		<polygon id="XMLID_5536_" fill="#242422" points="160.3,2.4 169.8,11.9 169.8,2.4 		"/>
	</g>
	<g id="XMLID_5532_">
		
			<rect id="XMLID_5534_" x="173.4" y="2.4" transform="matrix(-1 -1.224647e-16 1.224647e-16 -1 356.3358 14.299)" fill="#241E1C" width="9.5" height="9.5"/>
		<polygon id="XMLID_5533_" fill="#242422" points="173.4,2.4 182.9,11.9 182.9,2.4 		"/>
	</g>
	<g id="XMLID_5529_">
		
			<rect id="XMLID_5531_" x="186.5" y="2.4" transform="matrix(-1 -1.224647e-16 1.224647e-16 -1 382.5235 14.299)" fill="#241E1C" width="9.5" height="9.5"/>
		<polygon id="XMLID_5530_" fill="#242422" points="186.5,2.4 196,11.9 196,2.4 		"/>
	</g>
	<g id="XMLID_5526_">
		
			<rect id="XMLID_5528_" x="199.6" y="2.4" transform="matrix(-1 -1.224647e-16 1.224647e-16 -1 408.711 14.299)" fill="#241E1C" width="9.5" height="9.5"/>
		<polygon id="XMLID_5527_" fill="#242422" points="199.6,2.4 209.1,11.9 209.1,2.4 		"/>
	</g>
	<g id="XMLID_5523_">
		
			<rect id="XMLID_5525_" x="212.7" y="2.4" transform="matrix(-1 -1.224647e-16 1.224647e-16 -1 434.8986 14.299)" fill="#241E1C" width="9.5" height="9.5"/>
		<polygon id="XMLID_5524_" fill="#242422" points="212.7,2.4 222.2,11.9 222.2,2.4 		"/>
	</g>
	<g>
		<rect x="109.1" y="77.3" fill="#C7C6C6" width="2.9" height="2.9"/>
		<rect x="109.1" y="80.6" fill="#C7C6C6" width="2.9" height="2.9"/>
		<rect x="109.1" y="84" fill="#C7C6C6" width="2.9" height="2.9"/>
		<rect x="109.1" y="87.3" fill="#C7C6C6" width="2.9" height="2.9"/>
		<rect x="109.1" y="90.7" fill="#C7C6C6" width="2.9" height="2.9"/>
		<rect x="109.1" y="94" fill="#C7C6C6" width="2.9" height="2.9"/>
		<rect x="109.1" y="97.4" fill="#C7C6C6" width="2.9" height="2.9"/>
		<rect x="109.1" y="100.7" fill="#C7C6C6" width="2.9" height="2.9"/>
	</g>
	<g id="XMLID_5520_">
		
			<rect id="XMLID_5522_" x="225.8" y="2.4" transform="matrix(-1 -1.224647e-16 1.224647e-16 -1 461.0861 14.299)" fill="#241E1C" width="9.5" height="9.5"/>
		<polygon id="XMLID_5521_" fill="#242422" points="225.8,2.4 235.3,11.9 235.3,2.4 		"/>
	</g>
	<g id="XMLID_5517_">
		
			<rect id="XMLID_5519_" x="238.9" y="2.4" transform="matrix(-1 -1.224647e-16 1.224647e-16 -1 487.2738 14.299)" fill="#241E1C" width="9.5" height="9.5"/>
		<polygon id="XMLID_5518_" fill="#242422" points="238.9,2.4 248.4,11.9 248.4,2.4 		"/>
	</g>
	<g id="XMLID_5514_">
		
			<rect id="XMLID_5516_" x="252" y="2.4" transform="matrix(-1 -1.224647e-16 1.224647e-16 -1 513.4614 14.299)" fill="#241E1C" width="9.5" height="9.5"/>
		<polygon id="XMLID_5515_" fill="#242422" points="252,2.4 261.5,11.9 261.5,2.4 		"/>
	</g>
	<g id="XMLID_5511_">
		
			<rect id="XMLID_5513_" x="265.1" y="2.4" transform="matrix(-1 -1.224647e-16 1.224647e-16 -1 539.6489 14.299)" fill="#241E1C" width="9.5" height="9.5"/>
		<polygon id="XMLID_5512_" fill="#242422" points="265.1,2.4 274.6,11.9 274.6,2.4 		"/>
	</g>
	<g id="XMLID_5508_">
		
			<rect id="XMLID_5510_" x="290.1" y="2.4" transform="matrix(-1 -1.224647e-16 1.224647e-16 -1 589.6432 14.299)" fill="#241E1C" width="9.5" height="9.5"/>
		<polygon id="XMLID_5509_" fill="#242422" points="290.1,2.4 299.6,11.9 299.6,2.4 		"/>
	</g>
	<g id="XMLID_5505_">
		
			<rect id="XMLID_5507_" x="303.2" y="2.4" transform="matrix(-1 -1.224647e-16 1.224647e-16 -1 615.8309 14.299)" fill="#241E1C" width="9.5" height="9.5"/>
		<polygon id="XMLID_5506_" fill="#242422" points="303.2,2.4 312.7,11.9 312.7,2.4 		"/>
	</g>
	<g id="XMLID_5502_">
		
			<rect id="XMLID_5504_" x="316.2" y="2.4" transform="matrix(-1 -1.224647e-16 1.224647e-16 -1 642.0187 14.299)" fill="#241E1C" width="9.5" height="9.5"/>
		<polygon id="XMLID_5503_" fill="#242422" points="316.2,2.4 325.8,11.9 325.8,2.4 		"/>
	</g>
	<polygon id="XMLID_5501_" fill="#242422" points="114.2,107.2 144.4,107.2 144.4,75.9 142.1,73.6 111.9,73.6 111.9,105 	"/>
	<g id="XMLID_5498_">
		
			<rect id="XMLID_5500_" x="329.3" y="2.4" transform="matrix(-1 -1.224647e-16 1.224647e-16 -1 668.2062 14.299)" fill="#241E1C" width="9.5" height="9.5"/>
		<polygon id="XMLID_5499_" fill="#242422" points="329.3,2.4 338.9,11.9 338.9,2.4 		"/>
	</g>
	<g id="XMLID_5495_">
		
			<rect id="XMLID_5497_" x="342.4" y="2.4" transform="matrix(-1 -1.224647e-16 1.224647e-16 -1 694.3937 14.299)" fill="#241E1C" width="9.5" height="9.5"/>
		<polygon id="XMLID_5496_" fill="#242422" points="342.4,2.4 352,11.9 352,2.4 		"/>
	</g>
	<g id="XMLID_5492_">
		
			<rect id="XMLID_5494_" x="355.5" y="2.4" transform="matrix(-1 -1.224647e-16 1.224647e-16 -1 720.5814 14.299)" fill="#241E1C" width="9.5" height="9.5"/>
		<polygon id="XMLID_5493_" fill="#242422" points="355.5,2.4 365.1,11.9 365.1,2.4 		"/>
	</g>
	<g id="XMLID_5489_">
		
			<rect id="XMLID_5491_" x="368.6" y="2.4" transform="matrix(-1 -1.224647e-16 1.224647e-16 -1 746.7692 14.299)" fill="#241E1C" width="9.5" height="9.5"/>
		<polygon id="XMLID_5490_" fill="#242422" points="368.6,2.4 378.1,11.9 378.1,2.4 		"/>
	</g>
	<g id="XMLID_5486_">
		
			<rect id="XMLID_5488_" x="381.7" y="2.4" transform="matrix(-1 -1.224647e-16 1.224647e-16 -1 772.9565 14.299)" fill="#241E1C" width="9.5" height="9.5"/>
		<polygon id="XMLID_5487_" fill="#242422" points="381.7,2.4 391.2,11.9 391.2,2.4 		"/>
	</g>
	<polygon id="XMLID_5485_" fill="#242422" points="29.4,266.9 46,266.9 46,225.2 31.8,210.9 16.3,210.9 16.3,253.8 	"/>
	<g id="XMLID_5482_">
		<polygon id="XMLID_5484_" fill="#242422" points="43.1,263.3 96,263.3 96,230.6 82.3,218.1 31.8,218.1 31.8,250.8 		"/>
		
			<rect id="XMLID_5483_" x="29.4" y="216.9" transform="matrix(-1 -1.224647e-16 1.224647e-16 -1 112.3152 467.0983)" fill="#4A4A49" width="53.6" height="33.4"/>
	</g>
	
		<rect id="XMLID_5481_" x="16.3" y="210.9" transform="matrix(-1 -1.224647e-16 1.224647e-16 -1 48.0367 464.7153)" fill="#4A4A49" width="15.5" height="42.9"/>
	<polygon id="XMLID_5480_" fill="#2D2D2B" points="82.9,216.9 82.9,250.2 96,263.3 96,230 	"/>
	<g id="XMLID_5478_">
		<text transform="matrix(0 -1.001 1 0 44.8525 36.9375)" fill="#FFFFFF" font-family="'Arial-BoldMT'" font-size="7.142px">RESET</text>
	</g>
	<polygon id="XMLID_5477_" fill="#595957" points="59.1,16.7 48.4,16.7 47.2,15.5 47.2,8.3 57.9,8.3 59.1,9.5 	"/>
	<rect id="XMLID_5476_" x="47.2" y="8.3" fill="#E7E6DC" width="10.7" height="7.1"/>
	<rect id="XMLID_5475_" x="47.2" y="21.3" fill="#E7E6DC" width="10.7" height="7.1"/>
	<polygon id="XMLID_5474_" fill="#595957" points="59.1,42.9 48.4,42.9 47.2,41.7 47.2,34.6 57.9,34.6 59.1,35.7 	"/>
	<rect id="XMLID_5473_" x="47.2" y="34.6" fill="#E7E6DC" width="10.7" height="7.1"/>
	<polygon id="XMLID_5472_" fill="#595957" points="59.1,42.9 92.5,42.9 92.5,9.5 87.7,4.8 54.4,4.8 54.4,38.1 	"/>
	
		<rect id="XMLID_5471_" x="54.4" y="4.8" transform="matrix(-1 -1.224647e-16 1.224647e-16 -1 142.0738 42.8968)" fill="#DBD9DA" width="33.3" height="33.4"/>
	<path id="XMLID_5470_" fill="#197177" d="M61.5,21.4c0,5.3,4.3,9.5,9.5,9.5s9.5-4.3,9.5-9.5c0-5.3-4.3-9.5-9.5-9.5
		S61.5,16.2,61.5,21.4z"/>
	<path id="XMLID_5469_" fill="#35A6AE" d="M60.9,20.3c0,4.9,4,8.9,8.9,8.9c4.9,0,8.9-4,8.9-8.9c0-4.9-4-8.9-8.9-8.9
		C64.9,11.3,60.9,15.3,60.9,20.3z"/>
	<polygon id="XMLID_5468_" fill="#595957" points="103.2,16.7 92.5,16.7 91.3,15.5 91.3,8.3 102,8.3 103.2,9.5 	"/>
	<rect id="XMLID_5467_" x="91.3" y="8.3" fill="#E7E6DC" width="10.7" height="7.1"/>
	<polygon id="XMLID_5466_" fill="#595957" points="103.2,42.9 92.5,42.9 91.3,41.7 91.3,34.6 102,34.6 103.2,35.7 	"/>
	<rect id="XMLID_5465_" x="91.3" y="34.6" fill="#E7E6DC" width="10.7" height="7.1"/>
	<rect id="XMLID_5464_" x="371.1" y="59.7" fill="#C1C1C1" width="17.2" height="6.1"/>
	<rect id="XMLID_5463_" x="375.6" y="59.2" fill="#E7E6DC" width="8.2" height="7.1"/>
	<rect id="XMLID_5462_" x="189.1" y="57.1" fill="#C1C1C1" width="17.2" height="6.1"/>
	<rect id="XMLID_5461_" x="193.6" y="56.5" fill="#E7E6DC" width="8.2" height="7.1"/>
	<rect id="XMLID_5460_" x="167.2" y="81.1" fill="#C1C1C1" width="17.2" height="6.1"/>
	<rect id="XMLID_5459_" x="171.6" y="80.5" fill="#E7E6DC" width="8.2" height="7.1"/>
	<rect id="XMLID_5458_" x="167.2" y="94.1" fill="#C1C1C1" width="17.2" height="6.1"/>
	<rect id="XMLID_5457_" x="171.6" y="93.5" fill="#E7E6DC" width="8.2" height="7.1"/>
	<g id="XMLID_5455_">
		<polygon id="XMLID_5456_" fill="#242422" points="164.4,56.3 176.3,56.3 176.3,33.1 175.2,30.9 163.3,30.9 163.3,55.1 		"/>
	</g>
	<g id="XMLID_5453_">
		<rect id="XMLID_5454_" x="163.3" y="30.9" fill="#4A4A49" width="11.9" height="23.9"/>
	</g>
	<g id="XMLID_5451_">
		<polygon id="XMLID_5452_" fill="#242422" points="150.5,56.3 162.4,56.3 162.4,33.1 161.2,30.9 149.3,30.9 149.3,55.1 		"/>
	</g>
	<g id="XMLID_5449_">
		<rect id="XMLID_5450_" x="149.3" y="30.9" fill="#4A4A49" width="11.9" height="23.9"/>
	</g>
	<g id="XMLID_5447_">
		<polygon id="XMLID_5448_" fill="#242422" points="136.5,56.3 148.4,56.3 148.4,33.1 147.2,30.9 135.3,30.9 135.3,55.1 		"/>
	</g>
	<g id="XMLID_5445_">
		<rect id="XMLID_5446_" x="135.3" y="30.9" fill="#4A4A49" width="11.9" height="23.9"/>
	</g>
	<g>
		<g opacity="0.69">
			<path d="M143.3,35.4c0.8,0.8,0.8,2,0,2.8c-0.8,0.8-2,0.8-2.8,0c-0.8-0.8-0.8-2,0-2.8C141.3,34.6,142.5,34.6,143.3,35.4z"/>
		</g>
		<g>
			<path fill="#D4D2D1" d="M142.8,34.9c0.8,0.8,0.8,2,0,2.8c-0.8,0.8-2,0.8-2.8,0c-0.8-0.8-0.8-2,0-2.8
				C140.8,34.1,142,34.1,142.8,34.9z"/>
		</g>
	</g>
	<g>
		<g opacity="0.69">
			<path d="M143.3,48.4c0.8,0.8,0.8,2,0,2.8c-0.8,0.8-2,0.8-2.8,0c-0.8-0.8-0.8-2,0-2.8C141.3,47.6,142.5,47.6,143.3,48.4z"/>
		</g>
		<g>
			<path fill="#D4D2D1" d="M142.8,47.9c0.8,0.8,0.8,2,0,2.8c-0.8,0.8-2,0.8-2.8,0c-0.8-0.8-0.8-2,0-2.8
				C140.8,47.1,142,47.1,142.8,47.9z"/>
		</g>
	</g>
	<g>
		<g opacity="0.69">
			<ellipse cx="155.9" cy="36.8" rx="2" ry="2"/>
		</g>
		<g>
			<ellipse fill="#D4D2D1" cx="155.4" cy="36.3" rx="2" ry="2"/>
		</g>
	</g>
	<g>
		<g opacity="0.69">
			<path d="M157.3,48.4c0.8,0.8,0.8,2,0,2.8c-0.8,0.8-2,0.8-2.8,0c-0.8-0.8-0.8-2,0-2.8C155.2,47.6,156.5,47.6,157.3,48.4z"/>
		</g>
		<g>
			<path fill="#D4D2D1" d="M156.8,47.9c0.8,0.8,0.8,2,0,2.8c-0.8,0.8-2,0.8-2.8,0c-0.8-0.8-0.8-2,0-2.8
				C154.7,47.1,156,47.1,156.8,47.9z"/>
		</g>
	</g>
	<g>
		<g opacity="0.69">
			<ellipse cx="169.9" cy="36.8" rx="2" ry="2"/>
		</g>
		<g>
			<ellipse fill="#D4D2D1" cx="169.4" cy="36.3" rx="2" ry="2"/>
		</g>
	</g>
	<g>
		<g opacity="0.69">
			<path d="M171.3,48.4c0.8,0.8,0.8,2,0,2.8c-0.8,0.8-2,0.8-2.8,0c-0.8-0.8-0.8-2,0-2.8C169.2,47.6,170.5,47.6,171.3,48.4z"/>
		</g>
		<g>
			<path fill="#D4D2D1" d="M170.8,47.9c0.8,0.8,0.8,2,0,2.8c-0.8,0.8-2,0.8-2.8,0c-0.8-0.8-0.8-2,0-2.8
				C168.7,47.1,170,47.1,170.8,47.9z"/>
		</g>
	</g>
	<g id="XMLID_5443_">
		<polygon id="XMLID_5444_" fill="#242422" points="418.1,142.1 418.1,154 395,154.1 392.8,152.9 392.8,141 416.9,141 		"/>
	</g>
	<g id="XMLID_5441_">
		
			<rect id="XMLID_5442_" x="392.8" y="141" transform="matrix(1 -1.355556e-03 1.355556e-03 1 -0.1988 0.5488)" fill="#4A4A49" width="23.9" height="11.9"/>
	</g>
	<g id="XMLID_5439_">
		<polygon id="XMLID_5440_" fill="#242422" points="418.1,128.2 418.1,140.1 394.9,140.1 392.8,138.9 392.7,127 416.9,127 		"/>
	</g>
	<g id="XMLID_5437_">
		
			<rect id="XMLID_5438_" x="392.8" y="127" transform="matrix(1 -1.355577e-03 1.355577e-03 1 -0.1798 0.5487)" fill="#4A4A49" width="23.9" height="11.9"/>
	</g>
	<g id="XMLID_5435_">
		<polygon id="XMLID_5436_" fill="#242422" points="418.1,114.2 418.1,126.1 394.9,126.1 392.7,124.9 392.7,113 416.9,113 		"/>
	</g>
	<rect x="293.2" y="65.3" fill="#FFFFFF" width="37.9" height="16.5"/>
	<g id="XMLID_5433_">
		
			<rect id="XMLID_5434_" x="392.7" y="113" transform="matrix(1 -1.339608e-03 1.339608e-03 1 -0.159 0.5422)" fill="#4A4A49" width="23.9" height="11.9"/>
	</g>
	<g>
		<g opacity="0.69">
			<path d="M397.2,121c0.8,0.8,2,0.8,2.8,0s0.8-2,0-2.8c-0.8-0.8-2-0.8-2.8,0C396.4,119,396.4,120.2,397.2,121z"/>
		</g>
		<g>
			<path fill="#D4D2D1" d="M396.7,120.5c0.8,0.8,2,0.8,2.8,0s0.8-2,0-2.8c-0.8-0.8-2-0.8-2.8,0C395.9,118.5,395.9,119.7,396.7,120.5
				z"/>
		</g>
	</g>
	<g>
		<g opacity="0.69">
			<path d="M410.2,121c0.8,0.8,2,0.8,2.8,0c0.8-0.8,0.8-2,0-2.8c-0.8-0.8-2-0.8-2.8,0C409.4,118.9,409.4,120.2,410.2,121z"/>
		</g>
		<g>
			<path fill="#D4D2D1" d="M409.7,120.5c0.8,0.8,2,0.8,2.8,0c0.8-0.8,0.8-2,0-2.8c-0.8-0.8-2-0.8-2.8,0
				C408.9,118.4,408.9,119.7,409.7,120.5z"/>
		</g>
	</g>
	<g>
		<g opacity="0.69">
			<path d="M397.2,135c0.8,0.8,2,0.8,2.8,0c0.8-0.8,0.8-2,0-2.8c-0.8-0.8-2-0.8-2.8,0S396.4,134.2,397.2,135z"/>
		</g>
		<g>
			<path fill="#D4D2D1" d="M396.7,134.5c0.8,0.8,2,0.8,2.8,0c0.8-0.8,0.8-2,0-2.8c-0.8-0.8-2-0.8-2.8,0S395.9,133.7,396.7,134.5z"/>
		</g>
	</g>
	<g>
		<g opacity="0.69">
			<path d="M410.2,135c0.8,0.8,2,0.8,2.8,0c0.8-0.8,0.8-2,0-2.8c-0.8-0.8-2-0.8-2.8,0S409.4,134.2,410.2,135z"/>
		</g>
		<g>
			<path fill="#D4D2D1" d="M409.7,134.5c0.8,0.8,2,0.8,2.8,0c0.8-0.8,0.8-2,0-2.8c-0.8-0.8-2-0.8-2.8,0S408.9,133.7,409.7,134.5z"/>
		</g>
	</g>
	<g>
		<g opacity="0.69">
			<path d="M397.2,149c0.8,0.8,2,0.8,2.8,0s0.8-2,0-2.8c-0.8-0.8-2-0.8-2.8,0C396.5,147,396.5,148.2,397.2,149z"/>
		</g>
		<g>
			<path fill="#D4D2D1" d="M396.7,148.5c0.8,0.8,2,0.8,2.8,0s0.8-2,0-2.8c-0.8-0.8-2-0.8-2.8,0C396,146.5,396,147.7,396.7,148.5z"/>
		</g>
	</g>
	<g>
		<g opacity="0.69">
			<path d="M410.2,149c0.8,0.8,2,0.8,2.8,0s0.8-2,0-2.8c-0.8-0.8-2-0.8-2.8,0C409.4,146.9,409.4,148.2,410.2,149z"/>
		</g>
		<g>
			<path fill="#D4D2D1" d="M409.7,148.5c0.8,0.8,2,0.8,2.8,0s0.8-2,0-2.8c-0.8-0.8-2-0.8-2.8,0C408.9,146.4,408.9,147.7,409.7,148.5
				z"/>
		</g>
	</g>
	<g id="XMLID_5429_">
		<rect id="XMLID_5432_" x="201" y="170.3" fill="#373736" width="198" height="50.9"/>
	</g>
	<g id="XMLID_5425_">
		<rect id="XMLID_5426_" x="204" y="173.2" fill="#4A4A49" width="192.3" height="44.3"/>
	</g>
	<path fill="#373736" d="M244.2,195.2c0,3.9-3.1,7-7,7s-7-3.1-7-7c0-3.9,3.1-7,7-7S244.2,191.3,244.2,195.2z"/>
	<path fill="#373736" d="M370,195.2c0,3.9-3.1,7-7,7c-3.9,0-7-3.1-7-7c0-3.9,3.1-7,7-7C366.9,188.2,370,191.3,370,195.2z"/>
	<g>
		<rect x="205.3" y="172.2" fill="#B1B0B0" width="8" height="2"/>
		<rect x="221.3" y="172.2" fill="#B1B0B0" width="8" height="2"/>
		<rect x="237.2" y="172.2" fill="#B1B0B0" width="8" height="2"/>
		<rect x="254.2" y="172.2" fill="#B1B0B0" width="8" height="2"/>
		<rect x="271.2" y="172.2" fill="#B1B0B0" width="8" height="2"/>
		<rect x="288.2" y="172.2" fill="#B1B0B0" width="8" height="2"/>
		<rect x="305.1" y="172.2" fill="#B1B0B0" width="8" height="2"/>
		<rect x="322.1" y="172.2" fill="#B1B0B0" width="8" height="2"/>
		<rect x="338.1" y="172.2" fill="#B1B0B0" width="8" height="2"/>
		<rect x="354.1" y="172.2" fill="#B1B0B0" width="8" height="2"/>
		<rect x="370" y="172.2" fill="#B1B0B0" width="8" height="2"/>
		<rect x="386" y="172.2" fill="#B1B0B0" width="8" height="2"/>
	</g>
	<g>
		<rect x="205.3" y="216.2" fill="#B1B0B0" width="8" height="2"/>
		<rect x="221.3" y="216.2" fill="#B1B0B0" width="8" height="2"/>
		<rect x="237.2" y="216.2" fill="#B1B0B0" width="8" height="2"/>
		<rect x="254.2" y="216.2" fill="#B1B0B0" width="8" height="2"/>
		<rect x="271.2" y="216.2" fill="#B1B0B0" width="8" height="2"/>
		<rect x="288.2" y="216.2" fill="#B1B0B0" width="8" height="2"/>
		<rect x="305.1" y="216.2" fill="#B1B0B0" width="8" height="2"/>
		<rect x="322.1" y="216.2" fill="#B1B0B0" width="8" height="2"/>
		<rect x="338.1" y="216.2" fill="#B1B0B0" width="8" height="2"/>
		<rect x="354.1" y="216.2" fill="#B1B0B0" width="8" height="2"/>
		<rect x="370" y="216.2" fill="#B1B0B0" width="8" height="2"/>
		<rect x="386" y="216.2" fill="#B1B0B0" width="8" height="2"/>
	</g>
	
		<ellipse transform="matrix(1.306935e-03 -1 1 1.306935e-03 -104.9142 356.2892)" fill="#868786" cx="125.9" cy="230.7" rx="17.5" ry="17.5"/>
	
		<ellipse transform="matrix(1.523428e-03 -1 1 1.523428e-03 -104.9401 355.2411)" fill="#B3B2B2" cx="125.4" cy="230.2" rx="15" ry="15"/>
	<path fill="#4A4A49" d="M111,234.2c1.7,6.3,7.5,11,14.4,11s12.7-4.7,14.4-11H111z"/>
	
		<ellipse transform="matrix(1.306935e-03 -1 1 1.306935e-03 -64.035 399.2208)" fill="#868786" cx="167.9" cy="231.7" rx="17.5" ry="17.5"/>
	
		<ellipse transform="matrix(1.537492e-03 -1 1 1.537492e-03 -64.0724 398.1691)" fill="#B3B2B2" cx="167.4" cy="231.2" rx="15" ry="15"/>
	<path fill="#4A4A49" d="M152.9,235.2c1.7,6.3,7.5,11,14.4,11s12.7-4.7,14.4-11H152.9z"/>
	<g>
		<path fill="#DADADA" d="M163,151.2h-55.1c-3.5,0-6.4-2.9-6.4-6.4v-14.2c0-3.5,2.9-6.4,6.4-6.4H163c3.5,0,6.4,2.9,6.4,6.4v14.2
			C169.4,148.4,166.5,151.2,163,151.2z"/>
		<path fill="#7B7B79" d="M156.4,148.2h-41.9c-5.5,0-10-4.5-10-10l0,0c0-5.5,4.5-10,10-10h41.9c5.5,0,10,4.5,10,10l0,0
			C166.4,143.7,161.9,148.2,156.4,148.2z"/>
		<path fill="#C7C6C6" d="M156.4,146.2h-41.9c-5.5,0-10-4.5-10-10l0,0c0-5.5,4.5-10,10-10h41.9c5.5,0,10,4.5,10,10l0,0
			C166.4,141.7,161.9,146.2,156.4,146.2z"/>
	</g>
	<g>
		
			<rect x="115" y="72" transform="matrix(-1.836970e-16 1 -1 -1.836970e-16 189.8034 -43.2862)" fill="#C7C6C6" width="3" height="2.4"/>
		
			<rect x="118.5" y="72" transform="matrix(-1.836970e-16 1 -1 -1.836970e-16 193.2978 -46.7806)" fill="#C7C6C6" width="3" height="2.4"/>
		
			<rect x="122" y="72" transform="matrix(-1.836970e-16 1 -1 -1.836970e-16 196.7923 -50.2751)" fill="#C7C6C6" width="3" height="2.4"/>
		
			<rect x="125.5" y="72" transform="matrix(-1.836970e-16 1 -1 -1.836970e-16 200.2867 -53.7696)" fill="#C7C6C6" width="3" height="2.4"/>
		
			<rect x="129" y="72" transform="matrix(-1.836970e-16 1 -1 -1.836970e-16 203.7811 -57.2639)" fill="#C7C6C6" width="3" height="2.4"/>
		
			<rect x="132.5" y="72" transform="matrix(-1.836970e-16 1 -1 -1.836970e-16 207.2756 -60.7584)" fill="#C7C6C6" width="3" height="2.4"/>
		
			<rect x="136" y="72" transform="matrix(-1.836970e-16 1 -1 -1.836970e-16 210.77 -64.2529)" fill="#C7C6C6" width="3" height="2.4"/>
		
			<rect x="139.5" y="72" transform="matrix(-1.836970e-16 1 -1 -1.836970e-16 214.2645 -67.7473)" fill="#C7C6C6" width="3" height="2.4"/>
	</g>
	<rect x="37.6" y="137.2" fill="#C7C6C6" width="20" height="32"/>
	<rect x="39.6" y="140.2" fill="#CDAD51" width="18" height="25"/>
	<rect x="39.6" y="147.2" fill="#7B6A3F" width="18" height="13"/>
	<g>
		
			<rect x="115.6" y="107.5" transform="matrix(-1.836970e-16 1 -1 -1.836970e-16 225.8051 -8.3297)" fill="#C7C6C6" width="3" height="2.4"/>
		
			<rect x="119.1" y="107.5" transform="matrix(-1.836970e-16 1 -1 -1.836970e-16 229.2995 -11.8242)" fill="#C7C6C6" width="3" height="2.4"/>
		
			<rect x="122.6" y="107.5" transform="matrix(-1.836970e-16 1 -1 -1.836970e-16 232.7939 -15.3186)" fill="#C7C6C6" width="3" height="2.4"/>
		
			<rect x="126.1" y="107.5" transform="matrix(-1.836970e-16 1 -1 -1.836970e-16 236.2884 -18.8131)" fill="#C7C6C6" width="3" height="2.4"/>
		
			<rect x="129.5" y="107.5" transform="matrix(-1.836970e-16 1 -1 -1.836970e-16 239.7829 -22.3075)" fill="#C7C6C6" width="3" height="2.4"/>
		
			<rect x="133" y="107.5" transform="matrix(-1.836970e-16 1 -1 -1.836970e-16 243.2772 -25.8019)" fill="#C7C6C6" width="3" height="2.4"/>
		
			<rect x="136.5" y="107.5" transform="matrix(-1.836970e-16 1 -1 -1.836970e-16 246.7717 -29.2964)" fill="#C7C6C6" width="3" height="2.4"/>
		
			<rect x="140" y="107.5" transform="matrix(-1.836970e-16 1 -1 -1.836970e-16 250.2662 -32.7908)" fill="#C7C6C6" width="3" height="2.4"/>
	</g>
	<g>
		<rect x="144.4" y="77.7" fill="#C7C6C6" width="2.9" height="2.9"/>
		<rect x="144.4" y="81.1" fill="#C7C6C6" width="2.9" height="2.9"/>
		<rect x="144.4" y="84.4" fill="#C7C6C6" width="2.9" height="2.9"/>
		<rect x="144.4" y="87.8" fill="#C7C6C6" width="2.9" height="2.9"/>
		<rect x="144.4" y="91.2" fill="#C7C6C6" width="2.9" height="2.9"/>
		<rect x="144.4" y="94.5" fill="#C7C6C6" width="2.9" height="2.9"/>
		<rect x="144.4" y="97.9" fill="#C7C6C6" width="2.9" height="2.9"/>
		<rect x="144.4" y="101.2" fill="#C7C6C6" width="2.9" height="2.9"/>
	</g>
	
		<rect id="XMLID_3167_" x="111.9" y="73.6" transform="matrix(-1 -1.224647e-16 1.224647e-16 -1 254.0595 178.642)" fill="#4A4A49" width="30.2" height="31.4"/>
	
		<rect id="XMLID_2876_" x="296.8" y="154.9" transform="matrix(6.123234e-17 -1 1 6.123234e-17 141.927 462.3455)" fill="#FFFFFF" width="10.7" height="10.7"/>
	
		<rect id="XMLID_2874_" x="309.9" y="154.9" transform="matrix(6.123234e-17 -1 1 6.123234e-17 155.0209 475.4394)" fill="#FFFFFF" width="10.7" height="10.7"/>
	
		<rect id="XMLID_2819_" x="323" y="154.9" transform="matrix(6.123234e-17 -1 1 6.123234e-17 168.1147 488.5332)" fill="#FFFFFF" width="10.7" height="10.7"/>
	
		<rect id="XMLID_2816_" x="336.1" y="154.9" transform="matrix(6.123234e-17 -1 1 6.123234e-17 181.2085 501.627)" fill="#FFFFFF" width="10.7" height="10.7"/>
	<path fill="none" d="M253.1,71.4c-0.1-0.1-0.1-0.2-0.2-0.3c-1-1.4-2-2.8-3.2-4c-1.5-1.6-3.1-2.9-5.1-3.9c-2.3-1.2-4.7-1.8-7.3-2
		c-0.8,0-1.6,0-2.3,0c-0.7,0-1.4,0.1-2.1,0.3c-2.9,0.6-5.4,1.8-7.6,3.8c-2.3,2.1-3.9,4.6-4.6,7.6c-0.2,0.9-0.4,1.8-0.3,2.7
		c0,0.8,0,1.5,0,2.3c0,0.7,0.1,1.3,0.2,1.9c0.8,3.6,2.6,6.5,5.5,8.8c2.6,2.1,5.6,3.2,9,3.5c0.9,0.1,1.7,0,2.6,0
		c0.9,0,1.7-0.1,2.6-0.3c1.7-0.3,3.3-0.9,4.8-1.8c2-1.2,3.7-2.8,5.2-4.5c1-1.2,1.9-2.5,2.8-3.8c0,0,0.1-0.1,0.1-0.2
		c0.1,0.1,0.1,0.1,0.1,0.2c0.4,0.6,0.8,1.2,1.2,1.7c1.3,1.8,2.7,3.6,4.5,5c1.2,1,2.6,1.9,4.1,2.5c2.1,0.9,4.3,1.2,6.6,1.2
		c0.9,0,1.8,0,2.7-0.2c1.6-0.2,3.2-0.7,4.7-1.4c2.5-1.2,4.6-3,6.2-5.3c1.6-2.3,2.5-4.9,2.7-7.8c0.1-1.1,0-2.2-0.2-3.3
		c-0.3-1.7-0.9-3.4-1.7-4.9c-1.7-2.9-4-5.1-7-6.5c-1.9-0.9-3.9-1.4-6-1.5c-1.1-0.1-2.3,0-3.4,0.1c-1,0.1-2,0.3-3,0.6
		c-2.7,0.8-5,2.3-7,4.2c-1.5,1.4-2.8,3-4,4.7C253.4,71,253.3,71.2,253.1,71.4z M270.4,98.5C270.4,98.5,270.4,98.5,270.4,98.5
		c0.1,0.1,0.1,0.1,0.1,0.2c1,2.3,2.1,4.5,3.1,6.8c0,0.1,0.1,0.1,0.2,0.1c0.8,0,1.5,0,2.3,0c0.1,0,0.2-0.1,0.2-0.2
		c0-3.4,0-6.8,0-10.2c0-0.1,0-0.2-0.2-0.2c-0.5,0-1.1,0-1.6,0c-0.2,0-0.2,0-0.2,0.2c0,2.2,0,4.4,0,6.6c0,0.1,0,0.1,0,0.2
		c0,0,0,0-0.1,0c-0.1-0.2-0.1-0.3-0.2-0.5c-1-2.1-2-4.2-3-6.4c0-0.1-0.1-0.1-0.2-0.1c-0.7,0-1.5,0-2.2,0c-0.2,0-0.2,0-0.2,0.2
		c0,2.1,0,4.2,0,6.3c0,1.3,0,2.6,0,3.9c0,0.2,0,0.2,0.2,0.2c0.5,0,1.1,0,1.6,0c0.2,0,0.2,0,0.2-0.2c0-2.2,0-4.4,0-6.7
		C270.4,98.7,270.4,98.6,270.4,98.5z M240.4,100.3c0,1.7,0,3.4,0,5.1c0,0.2,0,0.2,0.2,0.2c0.9,0,1.9,0,2.8,0c0.6,0,1.1-0.1,1.7-0.2
		c1.7-0.4,2.9-1.5,3.3-3.2c0.2-0.8,0.3-1.6,0.2-2.5c0-0.6-0.1-1.3-0.3-1.9c-0.3-0.8-0.7-1.5-1.4-2c-0.8-0.6-1.8-0.8-2.8-0.8
		c-1.2,0-2.4,0-3.5,0c-0.2,0-0.2,0-0.2,0.2C240.4,97,240.4,98.6,240.4,100.3z M236.6,100.6c0.1,0,0.2-0.1,0.3-0.1
		c0.8-0.3,1.3-0.8,1.6-1.6c0.2-0.5,0.2-0.9,0.1-1.4c-0.1-0.8-0.4-1.4-1-1.8c-0.7-0.5-1.6-0.6-2.4-0.7c-1.2,0-2.4,0-3.6,0
		c-0.1,0-0.2,0-0.2,0.2c0,3.4,0,6.8,0,10.2c0,0.2,0,0.2,0.2,0.2c0.6,0,1.2,0,1.8,0c0.2,0,0.2,0,0.2-0.2c0-1.3,0-2.5,0-3.8
		c0-0.1,0-0.1,0-0.2c0,0,0.1-0.1,0.1-0.1c0.7,0,1.3,0.1,1.6,0.9c0.5,1.1,1,2.1,1.5,3.2c0.1,0.1,0.1,0.2,0.3,0.2c0.7,0,1.5,0,2.2,0
		c0.1,0,0.1,0,0.2,0c0-0.1-0.1-0.1-0.1-0.2c-0.5-1-1-2-1.5-3C237.5,101.8,237.2,101.1,236.6,100.6z M221,105.6c0.1,0,0.1,0,0.2,0
		c0.6,0,1.2,0,1.8,0c0.1,0,0.2,0,0.2-0.2c0.2-0.6,0.3-1.2,0.5-1.7c0-0.1,0.1-0.2,0.2-0.2c1.1,0,2.2,0,3.3,0c0.1,0,0.2,0,0.2,0.2
		c0.2,0.6,0.3,1.1,0.5,1.7c0,0.2,0.1,0.2,0.3,0.2c0.7,0,1.3,0,2,0c0.1,0,0.1,0,0.2,0c0-0.1,0-0.1,0-0.2c-0.3-0.9-0.5-1.7-0.8-2.6
		c-0.8-2.6-1.6-5.1-2.3-7.7c0-0.1-0.1-0.2-0.2-0.2c-0.9,0-1.7,0-2.6,0c-0.1,0-0.2,0.1-0.2,0.2c-0.9,3-1.9,6.1-2.8,9.1
		C221.3,104.7,221.2,105.2,221,105.6z M255.5,98.6c0,1.1,0,2.1,0,3.2c0,0.3,0,0.6-0.1,0.9c-0.1,0.6-0.5,1.1-1.2,1.2
		c-0.3,0-0.6,0-0.9,0c-0.6,0-1.2-0.5-1.3-1.1c-0.1-0.4-0.1-0.7-0.1-1.1c0-2.2,0-4.4,0-6.6c0-0.2,0-0.2-0.2-0.2c-0.6,0-1.2,0-1.8,0
		c-0.2,0-0.2,0-0.2,0.2c0,2.1,0,4.3,0,6.4c0,0.5,0,0.9,0.1,1.4c0.2,1.3,1,2.2,2.3,2.6c0.9,0.2,1.8,0.3,2.6,0.1
		c0.9-0.2,1.7-0.6,2.2-1.3c0.6-0.7,0.8-1.6,0.8-2.5c0-2.2,0-4.5,0-6.7c0-0.1,0-0.2-0.2-0.2c-0.6,0-1.2,0-1.8,0c-0.2,0-0.2,0-0.2,0.2
		C255.5,96.4,255.5,97.5,255.5,98.6z M261.9,100.3c0,1.1,0,2.2,0,3.3c0,0.2,0,0.2-0.2,0.2c-0.7,0-1.3,0-2,0c-0.1,0-0.2,0-0.2,0.2
		c0,0.5,0,1,0,1.5c0,0.1,0,0.2,0.2,0.2c2.2,0,4.5,0,6.7,0c0.1,0,0.2,0,0.2-0.2c0-0.5,0-1,0-1.4c0-0.1,0-0.2-0.2-0.2
		c-0.7,0-1.3,0-2,0c-0.2,0-0.2,0-0.2-0.2c0-2.2,0-4.4,0-6.6c0-0.2,0-0.2,0.2-0.2c0.7,0,1.3,0,2,0c0.1,0,0.2,0,0.2-0.2
		c0-0.5,0-0.9,0-1.4c0-0.1,0-0.2-0.2-0.2c-2.2,0-4.4,0-6.7,0c-0.1,0-0.2,0-0.2,0.2c0,0.5,0,0.9,0,1.4c0,0.2,0,0.2,0.2,0.2
		c0.6,0,1.3,0,1.9,0c0.3,0,0.3,0,0.3,0.2C261.9,98.1,261.9,99.2,261.9,100.3z"/>
	<path fill="#FFFFFF" d="M286,101c0,0.2-0.1,0.3-0.1,0.5c-0.2,1.2-0.6,2.3-1.5,3.2c-0.6,0.5-1.3,0.9-2.1,1c-0.9,0.2-1.7,0.1-2.6-0.2
		c-1.1-0.4-1.8-1.2-2.2-2.2c-0.3-0.7-0.4-1.4-0.4-2.1c0-0.5,0-0.9,0-1.4c0.1-1.2,0.3-2.4,1.1-3.4c0.7-0.9,1.6-1.4,2.7-1.5
		c0.8-0.1,1.6-0.1,2.4,0.2c1.1,0.4,1.8,1.3,2.2,2.4c0.2,0.6,0.3,1.2,0.4,1.8c0,0.1,0,0.1,0,0.2C286,100,286,100.5,286,101z
		 M283.7,100.4c0-0.7,0-1.3-0.2-2c-0.2-0.9-0.7-1.5-1.6-1.6c-0.8-0.1-1.4,0.1-1.9,0.9c-0.3,0.6-0.4,1.2-0.5,1.9c0,0.5,0,1,0,1.5
		c0,0.6,0.1,1.1,0.3,1.6c0.4,1.1,1.8,1.5,2.8,0.9c0.5-0.3,0.7-0.7,0.8-1.2C283.7,101.7,283.7,101,283.7,100.4z"/>
	<path fill="#FFFFFF" d="M253.1,69.4c0.1-0.2,0.3-0.4,0.4-0.6c1.2-1.7,2.5-3.3,4-4.7c2-1.9,4.3-3.4,7-4.2c1-0.3,2-0.5,3-0.6
		c1.1-0.1,2.3-0.2,3.4-0.1c2.1,0.1,4.1,0.6,6,1.5c3,1.4,5.4,3.6,7,6.5c0.9,1.5,1.4,3.2,1.7,4.9c0.2,1.1,0.2,2.2,0.2,3.3
		c-0.2,2.8-1,5.4-2.7,7.8c-1.6,2.3-3.7,4.1-6.2,5.3c-1.5,0.7-3.1,1.2-4.7,1.4c-0.9,0.1-1.8,0.2-2.7,0.2c-2.3,0.1-4.5-0.3-6.6-1.2
		c-1.5-0.6-2.8-1.5-4.1-2.5c-1.7-1.4-3.2-3.2-4.5-5c-0.4-0.6-0.8-1.2-1.2-1.7c0-0.1-0.1-0.1-0.1-0.2c0,0.1-0.1,0.1-0.1,0.2
		c-0.9,1.3-1.8,2.6-2.8,3.8c-1.5,1.8-3.2,3.4-5.2,4.5c-1.5,0.9-3.1,1.5-4.8,1.8c-0.8,0.2-1.7,0.3-2.6,0.3c-0.9,0-1.7,0-2.6,0
		c-3.3-0.2-6.4-1.4-9-3.5c-2.8-2.3-4.7-5.2-5.5-8.8c-0.1-0.6-0.2-1.3-0.2-1.9c0-0.8,0-1.5,0-2.3c0-0.9,0.1-1.8,0.3-2.7
		c0.8-3,2.3-5.5,4.6-7.6c2.2-2,4.7-3.2,7.6-3.8c0.7-0.1,1.4-0.2,2.1-0.3c0.8-0.1,1.6-0.1,2.3,0c2.6,0.1,5,0.8,7.3,2
		c1.9,1,3.6,2.4,5.1,3.9c1.2,1.2,2.2,2.6,3.2,4C253,69.2,253.1,69.3,253.1,69.4z M237.4,84.8c0.3,0,0.9-0.1,1.5-0.1
		c1.5-0.2,2.9-0.8,4.2-1.7c1.5-1,2.6-2.4,3.7-3.8c1.1-1.4,2-3,3-4.5c0.1-0.1,0.1-0.2,0-0.3c-0.6-1-1.3-1.9-1.9-2.9
		c-1-1.4-2.1-2.7-3.4-3.9c-1.2-1-2.5-1.8-3.9-2.3c-1.2-0.4-2.4-0.6-3.7-0.7c-0.9,0-1.9,0-2.8,0.2c-2,0.4-3.8,1.3-5.3,2.7
		c-2.3,2.2-3.4,5-3.1,8.2c0.1,1.2,0.4,2.3,1,3.3c1.4,2.8,3.7,4.5,6.7,5.4C234.6,84.7,235.9,84.7,237.4,84.8z M280.6,74.5
		c0-0.3-0.1-0.9-0.2-1.4c-0.3-1.8-1.1-3.4-2.3-4.8c-2.1-2.4-4.8-3.6-8-3.7c-0.8,0-1.6,0.1-2.4,0.2c-1.4,0.2-2.8,0.7-4,1.4
		c-1.6,0.9-2.9,2.1-4,3.5c-1.2,1.4-2.3,3-3.3,4.6c-0.1,0.1-0.1,0.2,0,0.3c0.8,1.3,1.7,2.6,2.5,3.9c0.9,1.4,2,2.6,3.3,3.7
		c1.9,1.7,4.2,2.5,6.8,2.6c0.4,0,0.8,0,1.1,0c0.6,0,1.2-0.1,1.8-0.2c1.8-0.3,3.5-1.1,5-2.3C279.3,80.3,280.5,77.7,280.6,74.5z"/>
	<path fill="#FFFFFF" d="M270.4,98.5c0,0.1,0,0.1,0,0.2c0,2.2,0,4.4,0,6.7c0,0.2,0,0.2-0.2,0.2c-0.5,0-1.1,0-1.6,0
		c-0.2,0-0.2,0-0.2-0.2c0-1.3,0-2.6,0-3.9c0-2.1,0-4.2,0-6.3c0-0.2,0-0.2,0.2-0.2c0.7,0,1.5,0,2.2,0c0.1,0,0.2,0,0.2,0.1
		c1,2.1,2,4.2,3,6.4c0.1,0.2,0.2,0.3,0.2,0.5c0,0,0,0,0.1,0c0-0.1,0-0.1,0-0.2c0-2.2,0-4.4,0-6.6c0-0.2,0-0.2,0.2-0.2
		c0.5,0,1.1,0,1.6,0c0.1,0,0.2,0,0.2,0.2c0,3.4,0,6.8,0,10.2c0,0.1,0,0.2-0.2,0.2c-0.8,0-1.5,0-2.3,0c-0.1,0-0.2,0-0.2-0.1
		c-1-2.3-2.1-4.5-3.1-6.8C270.5,98.6,270.4,98.6,270.4,98.5C270.4,98.5,270.4,98.5,270.4,98.5z"/>
	<path fill="#FFFFFF" d="M240.4,100.3c0-1.7,0-3.4,0-5.1c0-0.2,0-0.2,0.2-0.2c1.2,0,2.4,0,3.5,0c1,0,1.9,0.2,2.8,0.8
		c0.7,0.5,1.2,1.2,1.4,2c0.2,0.6,0.3,1.2,0.3,1.9c0,0.8,0,1.7-0.2,2.5c-0.5,1.7-1.6,2.8-3.3,3.2c-0.5,0.1-1.1,0.2-1.7,0.2
		c-0.9,0-1.9,0-2.8,0c-0.2,0-0.2,0-0.2-0.2C240.4,103.7,240.4,102,240.4,100.3z M242.5,100.3c0,0.8,0,1.7,0,2.5c0,0.3,0,0.6,0,0.8
		c0,0.1,0,0.2,0.1,0.1c0.4,0,0.8,0,1.2,0c1.2-0.1,1.9-0.8,2.2-1.9c0.3-1.1,0.2-2.1,0-3.2c-0.2-1-0.8-1.6-1.8-1.7
		c-0.5-0.1-1-0.1-1.5-0.1c-0.2,0-0.2,0-0.2,0.2C242.5,98.1,242.5,99.2,242.5,100.3z"/>
	<path fill="#FFFFFF" d="M236.6,100.6c0.7,0.5,1,1.1,1.3,1.8c0.5,1,1,2,1.5,3c0,0.1,0,0.1,0.1,0.2c-0.1,0-0.1,0-0.2,0
		c-0.7,0-1.5,0-2.2,0c-0.2,0-0.2-0.1-0.3-0.2c-0.5-1.1-1-2.2-1.5-3.2c-0.3-0.8-0.9-0.9-1.6-0.9c0,0-0.1,0.1-0.1,0.1
		c0,0.1,0,0.1,0,0.2c0,1.3,0,2.5,0,3.8c0,0.2,0,0.2-0.2,0.2c-0.6,0-1.2,0-1.8,0c-0.1,0-0.2,0-0.2-0.2c0-3.4,0-6.8,0-10.2
		c0-0.1,0-0.2,0.2-0.2c1.2,0,2.4,0,3.6,0c0.8,0,1.7,0.2,2.4,0.7c0.6,0.4,0.9,1.1,1,1.8c0.1,0.5,0,1-0.1,1.4
		c-0.3,0.8-0.8,1.3-1.6,1.6C236.8,100.5,236.7,100.6,236.6,100.6z M233.6,98.2c0,0.4,0,0.8,0,1.2c0,0.1,0,0.2,0.2,0.2
		c0.3,0,0.5,0,0.8,0c0.3,0,0.6-0.1,0.9-0.2c0.6-0.2,0.9-0.7,0.8-1.4c-0.1-0.6-0.4-1-1-1.1c-0.5-0.1-1-0.1-1.5-0.1
		c-0.2,0-0.2,0-0.2,0.2C233.6,97.4,233.6,97.8,233.6,98.2z"/>
	<path fill="#FFFFFF" d="M221,105.6c0.1-0.5,0.3-0.9,0.4-1.3c0.9-3,1.9-6.1,2.8-9.1c0-0.1,0.1-0.2,0.2-0.2c0.9,0,1.7,0,2.6,0
		c0.1,0,0.2,0,0.2,0.2c0.8,2.6,1.6,5.1,2.3,7.7c0.3,0.9,0.5,1.7,0.8,2.6c0,0.1,0,0.1,0,0.2c-0.1,0-0.1,0-0.2,0c-0.7,0-1.3,0-2,0
		c-0.2,0-0.2,0-0.3-0.2c-0.2-0.6-0.3-1.1-0.5-1.7c0-0.1-0.1-0.2-0.2-0.2c-1.1,0-2.2,0-3.3,0c-0.1,0-0.2,0.1-0.2,0.2
		c-0.2,0.6-0.3,1.2-0.5,1.7c0,0.1-0.1,0.2-0.2,0.2c-0.6,0-1.2,0-1.8,0C221.2,105.6,221.1,105.6,221,105.6z M225.7,97.4
		C225.7,97.4,225.7,97.4,225.7,97.4c-0.1,0.1-0.1,0.1-0.1,0.2c-0.4,1.3-0.8,2.7-1.2,4c-0.1,0.2,0,0.2,0.2,0.2c0.7,0,1.4,0,2.1,0
		c0.2,0,0.2,0,0.2-0.2c-0.4-1.2-0.7-2.4-1.1-3.6C225.8,97.8,225.7,97.6,225.7,97.4z"/>
	<path fill="#FFFFFF" d="M255.5,98.6c0-1.1,0-2.3,0-3.4c0-0.2,0-0.2,0.2-0.2c0.6,0,1.2,0,1.8,0c0.1,0,0.2,0,0.2,0.2
		c0,2.2,0,4.5,0,6.7c0,0.9-0.2,1.8-0.8,2.5c-0.6,0.7-1.3,1.1-2.2,1.3c-0.9,0.2-1.8,0.1-2.6-0.1c-1.3-0.3-2.1-1.3-2.3-2.6
		c-0.1-0.4-0.1-0.9-0.1-1.4c0-2.1,0-4.3,0-6.4c0-0.2,0-0.2,0.2-0.2c0.6,0,1.2,0,1.8,0c0.2,0,0.2,0.1,0.2,0.2c0,2.2,0,4.4,0,6.6
		c0,0.4,0,0.8,0.1,1.1c0.1,0.6,0.7,1,1.3,1.1c0.3,0,0.6,0,0.9,0c0.7-0.1,1.1-0.5,1.2-1.2c0.1-0.3,0.1-0.6,0.1-0.9
		C255.5,100.8,255.5,99.7,255.5,98.6z"/>
	<path fill="#FFFFFF" d="M261.9,100.3c0-1.1,0-2.2,0-3.3c0-0.2,0-0.2-0.3-0.2c-0.6,0-1.3,0-1.9,0c-0.2,0-0.2,0-0.2-0.2
		c0-0.5,0-0.9,0-1.4c0-0.1,0-0.2,0.2-0.2c2.2,0,4.4,0,6.7,0c0.1,0,0.2,0,0.2,0.2c0,0.5,0,0.9,0,1.4c0,0.1,0,0.2-0.2,0.2
		c-0.7,0-1.3,0-2,0c-0.2,0-0.2,0-0.2,0.2c0,2.2,0,4.4,0,6.6c0,0.2,0.1,0.2,0.2,0.2c0.7,0,1.3,0,2,0c0.1,0,0.2,0,0.2,0.2
		c0,0.5,0,1,0,1.4c0,0.1,0,0.2-0.2,0.2c-2.2,0-4.5,0-6.7,0c-0.1,0-0.2,0-0.2-0.2c0-0.5,0-1,0-1.5c0-0.1,0-0.2,0.2-0.2
		c0.7,0,1.3,0,2,0c0.2,0,0.2,0,0.2-0.2C261.9,102.5,261.9,101.4,261.9,100.3z"/>
	<rect x="113.5" y="165.1" fill="#B3B2B2" width="3.7" height="3.3"/>
	<path fill="#FFFFFF" d="M236.7,75.4c-1.7,0-3.5,0-5.2,0c-0.2,0-0.2,0-0.2-0.2c0-0.7,0-1.3,0-2c0-0.1,0-0.2,0.2-0.2
		c3.5,0,7,0,10.5,0c0.1,0,0.2,0,0.2,0.2c0,0.7,0,1.3,0,2c0,0.2,0,0.2-0.2,0.2C240.2,75.4,238.4,75.4,236.7,75.4z"/>
	<path fill="#FFFFFF" d="M264.7,74.2c0-0.4,0-0.9,0-1.3c0-0.1,0-0.2,0.2-0.2c0.9,0,1.7,0,2.6,0c0.2,0,0.2,0,0.2-0.2
		c0-0.8,0-1.7,0-2.5c0-0.2,0-0.2,0.2-0.2c0.9,0,1.7,0,2.6,0c0.2,0,0.2,0,0.2,0.2c0,0.9,0,1.7,0,2.6c0,0.1,0,0.2,0.2,0.2
		c0.9,0,1.7,0,2.6,0c0.2,0,0.2,0,0.2,0.2c0,0.9,0,1.8,0,2.6c0,0.1,0,0.2-0.2,0.2c-0.9,0-1.7,0-2.6,0c-0.1,0-0.2,0-0.2,0.2
		c0,0.9,0,1.7,0,2.6c0,0.2,0,0.2-0.2,0.2c-0.9,0-1.8,0-2.6,0c-0.2,0-0.2,0-0.2-0.2c0-0.9,0-1.7,0-2.6c0-0.2,0-0.2-0.2-0.2
		c-0.9,0-1.7,0-2.6,0c-0.2,0-0.2,0-0.2-0.2C264.7,75.1,264.7,74.6,264.7,74.2z"/>
	
		<text id="XMLID_2815_" transform="matrix(0.999 0 0 1 285.583 63.1035)" fill="#FFFFFF" font-family="'DejaVuSansMono-Bold'" font-size="5.2624px">r</text>
	<path fill="none" stroke="#FFFFFF" stroke-width="0.75" stroke-miterlimit="10" d="M289.7,60.2c0,1.9-1.6,3.5-3.5,3.5
		c-1.9,0-3.5-1.6-3.5-3.5s1.6-3.5,3.5-3.5C288.1,56.7,289.7,58.2,289.7,60.2z"/>
	<rect x="113.5" y="169" fill="#B3B2B2" width="3.7" height="3.3"/>
	<rect x="113.5" y="172.9" fill="#B3B2B2" width="3.7" height="3.3"/>
	<rect x="113.5" y="176.8" fill="#B3B2B2" width="3.7" height="3.3"/>
	<rect x="133.2" y="165.1" fill="#B3B2B2" width="3.7" height="3.3"/>
	<rect x="133.2" y="169" fill="#B3B2B2" width="3.7" height="3.3"/>
	<rect x="133.2" y="172.9" fill="#B3B2B2" width="3.7" height="3.3"/>
	<rect x="133.2" y="176.8" fill="#B3B2B2" width="3.7" height="3.3"/>
	<rect x="303.7" y="70.7" fill="none" width="5" height="4.7"/>
	
		<text id="XMLID_1_" transform="matrix(0.9841 0 0 1 293.9834 79.7319)" fill="#2F6571" font-family="'SourceSansPro-Light'" font-size="17.9901px">uno</text>
	<polygon fill="#242422" points="133.2,180.9 117.3,180.9 116.3,179.6 116.3,163.5 132.1,163.5 133.2,164.5 	"/>
	<rect x="116.3" y="163.5" fill="#4A4A49" width="15.8" height="16.1"/>
	<rect x="163.4" y="184.2" fill="#B3B2B2" width="3.7" height="3.3"/>
	<rect x="163.4" y="194" fill="#B3B2B2" width="3.7" height="3.3"/>
	<g>
		<rect x="149.6" y="183.6" fill="#B3B2B2" width="3.7" height="3.3"/>
		<rect x="149.6" y="188.5" fill="#B3B2B2" width="3.7" height="3.3"/>
		<rect x="149.6" y="193.4" fill="#B3B2B2" width="3.7" height="3.3"/>
		<rect x="152.5" y="184.4" fill="#B3B2B2" width="1.5" height="1.5"/>
		<rect x="152.9" y="189.4" fill="#B3B2B2" width="1.1" height="1.5"/>
		<rect x="152.9" y="194.3" fill="#B3B2B2" width="1.1" height="1.5"/>
	</g>
	<polygon fill="#242422" points="162.1,198.6 154.7,198.6 153.8,197.7 153.8,181.7 161.4,181.7 162.1,182.7 	"/>
	<rect x="153.8" y="181.7" fill="#4A4A49" width="7.7" height="16"/>
	<rect x="162.1" y="194.7" fill="#B3B2B2" width="1.8" height="1.5"/>
	<rect x="162.1" y="185.1" fill="#B3B2B2" width="1.5" height="1.5"/>
	<rect x="54.3" y="184" fill="#B3B2B2" width="8.2" height="17.3"/>
	<rect x="65.9" y="148.8" fill="#B3B2B2" width="4.3" height="3.3"/>
	<rect x="68.1" y="149.8" fill="#B3B2B2" width="4.7" height="1.5"/>
	<polygon fill="#2D2D2B" points="81.1,209.4 63.4,209.4 62.4,207.6 62.4,174.1 79.6,174.1 81.1,175.1 	"/>
	<polygon fill="#2D2D2B" points="78.9,158.9 72.1,158.9 71.1,157.7 71.1,142.5 77.9,142.5 78.9,143.5 	"/>
	<rect x="82.7" y="179" fill="#B3B2B2" width="9.8" height="7.2"/>
	<rect x="79.9" y="145.1" fill="#B3B2B2" width="4.2" height="3"/>
	<rect x="78.9" y="145.5" fill="#B3B2B2" width="1.1" height="2.1"/>
	<rect x="79.9" y="154.6" fill="#B3B2B2" width="4.2" height="3"/>
	<rect x="78.9" y="155.1" fill="#B3B2B2" width="1.1" height="2.1"/>
	<rect x="81.1" y="180.3" fill="#B3B2B2" width="1.6" height="4.5"/>
	<rect x="82.7" y="188.9" fill="#B3B2B2" width="9.8" height="7.2"/>
	<rect x="81.1" y="190.2" fill="#B3B2B2" width="1.6" height="4.5"/>
	<rect x="82.7" y="199.1" fill="#B3B2B2" width="9.8" height="7.2"/>
	<rect x="81.1" y="200.5" fill="#B3B2B2" width="1.6" height="4.5"/>
	<rect x="62.4" y="174.1" fill="#4A4A49" width="17.1" height="33.5"/>
	<rect x="71.1" y="142.5" fill="#4A4A49" width="6.8" height="15.2"/>
</g>
</svg>
