<?xml version="1.0" encoding="UTF-8" standalone="no"?>
<svg
   xmlns:dc="http://purl.org/dc/elements/1.1/"
   xmlns:cc="http://creativecommons.org/ns#"
   xmlns:rdf="http://www.w3.org/1999/02/22-rdf-syntax-ns#"
   xmlns:svg="http://www.w3.org/2000/svg"
   xmlns="http://www.w3.org/2000/svg"
   xmlns:sodipodi="http://sodipodi.sourceforge.net/DTD/sodipodi-0.dtd"
   xmlns:inkscape="http://www.inkscape.org/namespaces/inkscape"
   id="Layer_1"
   enable-background="new 0 0 128 128"
   height="512"
   viewBox="0 0 128 128"
   width="512"
   version="1.1"
   sodipodi:docname="infrared.svg"
   inkscape:version="0.92.4 (5da689c313, 2019-01-14)">
  <metadata
     id="metadata27">
    <rdf:RDF>
      <cc:Work
         rdf:about="">
        <dc:format>image/svg+xml</dc:format>
        <dc:type
           rdf:resource="http://purl.org/dc/dcmitype/StillImage" />
        <dc:title />
      </cc:Work>
    </rdf:RDF>
  </metadata>
  <defs
     id="defs25" />
  <sodipodi:namedview
     pagecolor="#ffffff"
     bordercolor="#666666"
     borderopacity="1"
     objecttolerance="10"
     gridtolerance="10"
     guidetolerance="10"
     inkscape:pageopacity="0"
     inkscape:pageshadow="2"
     inkscape:window-width="2560"
     inkscape:window-height="1403"
     id="namedview23"
     showgrid="false"
     inkscape:zoom="1.3037281"
     inkscape:cx="122.62538"
     inkscape:cy="273.30737"
     inkscape:window-x="2560"
     inkscape:window-y="0"
     inkscape:window-maximized="1"
     inkscape:current-layer="Layer_1" />
  <g
     id="g863"
     transform="matrix(2.0072197,0,0,2.0072197,-64.325211,-25.438125)">
    <circle
       cx="64"
       cy="57.430508"
       r="5.0813556"
       id="circle14"
       style="opacity:1;vector-effect:none;fill:#fb4d4f;fill-opacity:1;stroke-width:1;stroke-linecap:butt;stroke-linejoin:miter;stroke-miterlimit:4;stroke-dasharray:none;stroke-dashoffset:0;stroke-opacity:1" />
    <path
       d="m 49,47 c -0.8,-1 -0.2,-2.1 0.1,-2.4 8.3,-8.3 21.7,-8.3 29.9,0 0.7,0.7 0.7,1.8 0,2.5 -0.7,0.7 -1.8,0.7 -2.5,0 -6.9,-6.9 -18.2,-7 -25,0 C 51.1,47.5 49.8,48 49,47 Z"
       id="path16"
       inkscape:connector-curvature="0"
       style="opacity:1;vector-effect:none;fill:#fb4d4f;fill-opacity:1;stroke-width:1;stroke-linecap:butt;stroke-linejoin:miter;stroke-miterlimit:4;stroke-dasharray:none;stroke-dashoffset:0;stroke-opacity:1" />
    <path
       d="m 41.2,39.3 c -1,-1 -0.3,-2.2 0,-2.5 12.6,-12.6 33,-12.6 45.6,0 0.7,0.7 0.7,1.8 0,2.5 -0.7,0.7 -1.8,0.7 -2.5,0 -11.2,-11.2 -29.4,-11.2 -40.7,0 -0.3,0.3 -1.5,0.9 -2.4,0 z"
       id="path18"
       inkscape:connector-curvature="0"
       style="fill:#fb4d4f" />
  </g>
</svg>
